<svg version="1.1" id="Layer_1" xmlns="http://www.w3.org/2000/svg" xmlns:xlink="http://www.w3.org/1999/xlink" x="0px" y="0px"
	 width="100%" viewBox="0 0 186 126" enable-background="new 0 0 186 126" xml:space="preserve">
<path fill="none" opacity="1.000000" stroke="none" 
	d="
M87.000000,127.000000 
	C58.376186,127.000000 29.752373,127.000000 1.064280,127.000000 
	C1.064280,85.105721 1.064280,43.211319 1.064280,1.000000 
	C27.686726,1.000000 54.374702,1.000000 81.839844,1.311750 
	C81.740341,3.898324 81.066193,4.991016 77.736565,4.269824 
	C73.246689,3.297326 67.584465,2.376223 65.791924,9.390692 
	C65.588379,10.187182 63.393478,10.575123 62.066822,10.964771 
	C58.589256,11.986160 53.419605,11.818666 53.285713,16.293814 
	C53.143219,21.056395 50.311501,22.372318 47.276230,23.890184 
	C43.605507,25.725821 42.377777,28.421566 43.067234,32.303265 
	C43.335133,33.811581 43.387730,35.358135 43.538406,36.887272 
	C43.877094,37.206764 44.215786,37.526257 44.554478,37.845753 
	C45.302586,36.195061 46.050694,34.544369 46.697277,33.117691 
	C49.625473,34.641754 51.503895,35.713715 53.459248,36.619625 
	C59.541149,39.437370 65.359962,35.624172 62.644276,30.148014 
	C61.278698,31.449106 60.001846,32.665665 58.491135,34.105038 
	C55.055943,31.604279 51.576862,29.071568 47.836563,26.348696 
	C51.079556,24.361897 53.747684,22.727283 56.387180,21.110212 
	C57.902851,22.499304 59.327396,23.804882 60.647522,25.014759 
	C65.766106,20.641365 59.888245,17.790384 59.345585,14.272916 
	C62.646152,13.500392 65.678757,12.790586 68.866638,12.044438 
	C70.222977,14.656687 71.630821,17.093704 72.778603,19.647598 
	C74.239365,22.897882 76.514236,23.830645 79.860062,22.804161 
	C95.264816,18.078053 109.109131,22.358507 119.204697,34.693424 
	C120.330986,36.069546 122.361038,36.705982 123.971977,37.685448 
	C124.251350,37.265766 124.530731,36.846085 124.810112,36.426403 
	C123.713982,34.631374 122.617851,32.836346 121.345009,30.751923 
	C125.162468,28.321133 128.813232,25.996490 132.725113,23.505583 
	C133.579086,27.219774 134.274185,30.243013 134.976410,33.297211 
	C132.810059,34.478516 130.856613,35.543720 128.774170,36.679264 
	C134.098068,43.880821 138.202591,35.511665 143.239944,36.098030 
	C142.341263,34.077713 141.293961,31.966877 139.741013,31.484766 
	C136.827606,30.580303 136.392975,28.807478 135.911407,26.236101 
	C135.233734,22.617603 135.141281,17.873240 129.987625,17.624287 
	C126.297958,17.446051 124.962212,15.604006 123.947159,12.606870 
	C122.635979,8.735326 119.525101,6.988919 115.677635,7.130082 
	C112.230080,7.256571 107.879951,4.835365 106.000000,1.000000 
	C132.959915,1.000000 159.919815,1.000000 186.939865,1.000000 
	C186.939865,42.897480 186.939865,84.795067 186.939865,127.000000 
	C157.979828,127.000000 128.958572,127.000000 99.178635,126.712952 
	C100.839348,124.242470 103.592621,122.324554 105.593712,119.808426 
	C108.098030,116.659554 111.136139,116.862595 114.474854,117.142685 
	C119.919121,117.599403 125.373924,117.930527 131.629333,118.371376 
	C127.727272,111.633133 124.463882,105.997780 121.980888,101.710045 
	C124.865875,99.101654 128.978195,97.151680 129.386459,94.607361 
	C130.026962,90.615822 132.480179,89.783356 134.908096,87.890808 
	C137.047623,86.223053 138.866745,83.671478 139.852081,81.131805 
	C140.793915,78.704224 140.478455,75.788841 140.794144,72.194008 
	C138.880783,74.052750 137.035080,75.845795 134.991806,77.830757 
	C132.773117,76.710617 130.002945,75.787384 127.819519,74.103371 
	C124.122299,71.251808 122.243561,72.245834 119.663567,75.866653 
	C105.940498,95.125938 77.950058,95.542229 63.546181,76.935570 
	C58.628544,70.583054 55.742222,69.731674 48.088909,71.985985 
	C45.621632,72.712723 43.009453,72.947525 39.236179,73.629066 
	C40.336792,75.670204 41.060879,79.238396 43.030807,80.168816 
	C46.370010,81.745949 46.526028,84.041344 47.049667,86.874084 
	C47.733757,90.574814 48.945889,93.899582 53.831520,94.183037 
	C55.293873,94.267883 57.169247,96.016319 57.944603,97.483810 
	C60.115898,101.593353 62.506084,104.981689 68.666435,103.966743 
	C65.438423,109.581459 62.606365,114.507454 59.437843,120.018684 
	C63.039738,120.018684 65.841118,120.138603 68.625816,119.974884 
	C70.369514,119.872368 72.205765,119.619850 73.792564,118.945427 
	C76.758652,117.684792 79.383354,116.712708 81.666344,120.134697 
	C83.270439,122.539078 85.210159,124.719543 87.000000,127.000000 
M17.567074,68.222038 
	C17.390842,67.596733 17.220318,66.428513 17.037533,66.426582 
	C13.663177,66.391121 13.509458,64.151382 13.548110,61.647861 
	C13.601063,58.218117 13.561347,54.786934 13.561347,50.986862 
	C15.676913,50.986862 17.317772,51.112850 18.933397,50.964329 
	C24.872902,50.418316 28.676458,45.972633 28.963955,39.365322 
	C29.239092,33.042088 26.152739,27.836206 20.960238,27.326368 
	C15.460783,26.786394 9.867196,27.205122 4.025951,27.205122 
	C7.609847,33.121723 7.728802,62.496727 4.090450,68.367920 
	C8.553010,68.367920 12.634343,68.367920 17.567074,68.222038 
M73.506447,57.427406 
	C73.506447,46.700672 73.506447,35.973938 73.506447,25.579269 
	C70.087708,25.579269 67.454247,25.579269 66.231979,25.579269 
	C66.629044,30.928680 66.995445,35.864990 67.390297,41.184650 
	C58.963440,38.157261 53.870548,40.469864 52.533096,48.295074 
	C51.721741,53.042202 52.187824,58.218410 53.139210,62.990700 
	C53.928036,66.947586 57.137009,69.408676 61.606354,69.290985 
	C65.395538,69.191216 69.184967,69.083359 72.971695,68.919189 
	C73.980774,68.875450 74.980316,68.611763 74.793777,68.641991 
	C74.317909,64.856506 73.912163,61.628792 73.506447,57.427406 
M104.123772,58.993877 
	C109.192337,56.859966 110.723465,52.926735 110.099937,47.709572 
	C109.833839,45.483036 110.055473,43.198204 110.055473,40.598724 
	C108.555351,40.598724 106.231850,40.975399 104.079277,40.528580 
	C97.438072,39.150032 92.822044,40.353260 90.365898,44.510353 
	C87.618362,49.160656 88.670517,53.717762 93.398148,58.389668 
	C92.926064,60.092995 91.874664,61.792572 92.194023,63.175625 
	C92.834167,65.947845 92.218636,67.770874 90.432716,70.011909 
	C88.127243,72.904884 89.816940,77.362976 93.274277,79.236198 
	C97.710182,81.639610 104.463707,81.037811 108.359230,77.891998 
	C113.160378,74.014847 112.940048,66.058014 107.670685,63.601170 
	C105.577347,62.625145 102.811401,63.185329 100.401756,62.761448 
	C98.769836,62.474373 97.225266,61.690826 95.641632,61.129326 
	C95.834305,60.716213 96.026985,60.303101 96.219666,59.889988 
	C98.590866,59.653076 100.962074,59.416164 104.123772,58.993877 
M147.210999,64.631401 
	C145.398697,65.285316 142.133850,66.728447 141.995102,66.473053 
	C140.304596,63.361759 139.073624,60.000801 137.317490,55.713730 
	C143.913452,55.713730 148.828094,55.713730 154.310516,55.713730 
	C153.878983,52.887241 153.664169,50.604321 153.163925,48.385754 
	C152.118866,43.750927 149.410995,40.644867 144.510010,40.021420 
	C139.667053,39.405346 135.693680,41.770931 133.429153,46.720497 
	C130.868835,52.316544 130.993454,58.021950 133.533035,63.601532 
	C135.694382,68.350128 140.068802,70.694550 144.813065,69.866043 
	C149.953476,68.968346 152.706451,65.705704 153.150192,59.985424 
	C148.937378,59.681755 148.937378,59.681755 147.210999,64.631401 
M177.066849,55.903896 
	C177.529373,55.759647 178.274841,55.746410 178.411514,55.451271 
	C180.145676,51.706280 177.303711,44.008839 173.325272,41.487835 
	C169.007385,38.751728 163.422409,39.867374 160.007462,44.148193 
	C155.921112,49.270657 155.369446,58.274246 158.764786,64.429863 
	C161.252304,68.939644 165.612411,71.076881 170.458481,69.800728 
	C175.261536,68.535896 177.995865,65.379547 178.260269,60.095070 
	C175.441330,59.529091 173.548355,59.429199 172.698029,63.039162 
	C172.316559,64.658623 169.691742,66.597176 167.940872,66.750969 
	C166.758209,66.854851 164.869751,64.290100 164.125641,62.562187 
	C163.327377,60.708500 163.499268,58.437019 163.195374,55.912445 
	C167.881561,55.912445 172.012863,55.912445 177.066849,55.903896 
M27.740805,56.845448 
	C28.220123,58.770809 28.467426,60.793068 29.223305,62.602924 
	C31.292183,67.556572 35.501648,69.785683 40.854172,69.031464 
	C45.553520,68.369286 48.441856,64.993576 49.141083,59.193153 
	C47.683628,59.193153 46.248814,59.193153 44.589790,59.193153 
	C43.589481,62.466770 43.427624,67.328659 38.562481,65.975914 
	C33.417667,64.545410 34.892342,59.389061 34.010845,54.940964 
	C39.574215,54.940964 44.661633,54.940964 50.271603,54.940964 
	C49.697002,51.740723 49.494381,49.062809 48.705860,46.570240 
	C47.402401,42.449894 44.520836,39.741875 40.111145,39.246067 
	C35.672905,38.747040 31.953810,40.732914 30.249931,44.609924 
	C28.705956,48.123093 28.470190,52.211201 27.740805,56.845448 
M126.554115,40.004353 
	C122.196587,40.258755 117.839058,40.513161 113.164253,40.786087 
	C117.015503,45.675343 117.074295,62.978146 113.556519,68.779755 
	C117.282280,68.779755 120.947594,68.779755 124.896996,68.779755 
	C121.361374,64.171715 121.043747,48.076050 124.654503,44.616783 
	C125.095482,46.945934 125.466072,48.903255 125.814880,50.745567 
	C127.311943,50.745567 128.554993,50.745567 131.374390,50.745567 
	C129.846497,46.728413 128.593887,43.435024 126.554115,40.004353 
M79.126427,42.494240 
	C80.875626,51.184032 81.269318,59.815968 78.336967,68.634453 
	C81.639824,68.634453 85.254532,68.634453 88.844292,68.634453 
	C84.444649,59.309818 88.262154,49.520233 86.215698,40.046394 
	C83.832375,40.046394 81.510208,39.967758 79.205841,40.134853 
	C78.876625,40.158726 78.633644,41.371906 79.126427,42.494240 
M80.160721,31.257334 
	C81.277710,32.429478 82.394699,33.601624 83.511681,34.773762 
	C84.336967,33.635025 85.901260,32.439304 85.818855,31.370554 
	C85.686615,29.655489 84.464668,28.024445 83.703239,26.357893 
	C82.505295,27.739521 81.307350,29.121149 80.160721,31.257334 
z"/>
<path fill="#F2F2F2" opacity="1.000000" stroke="none" 
	d="
M87.460632,127.000000 
	C85.210159,124.719543 83.270439,122.539078 81.666344,120.134697 
	C79.383354,116.712708 76.758652,117.684792 73.792564,118.945427 
	C72.205765,119.619850 70.369514,119.872368 68.625816,119.974884 
	C65.841118,120.138603 63.039738,120.018684 59.437843,120.018684 
	C62.606365,114.507454 65.438423,109.581459 68.666435,103.966743 
	C62.506084,104.981689 60.115898,101.593353 57.944603,97.483810 
	C57.169247,96.016319 55.293873,94.267883 53.831520,94.183037 
	C48.945889,93.899582 47.733757,90.574814 47.049667,86.874084 
	C46.526028,84.041344 46.370010,81.745949 43.030807,80.168816 
	C41.060879,79.238396 40.336792,75.670204 39.236179,73.629066 
	C43.009453,72.947525 45.621632,72.712723 48.088909,71.985985 
	C55.742222,69.731674 58.628544,70.583054 63.546181,76.935570 
	C77.950058,95.542229 105.940498,95.125938 119.663567,75.866653 
	C122.243561,72.245834 124.122299,71.251808 127.819519,74.103371 
	C130.002945,75.787384 132.773117,76.710617 134.991806,77.830757 
	C137.035080,75.845795 138.880783,74.052750 140.794144,72.194008 
	C140.478455,75.788841 140.793915,78.704224 139.852081,81.131805 
	C138.866745,83.671478 137.047623,86.223053 134.908096,87.890808 
	C132.480179,89.783356 130.026962,90.615822 129.386459,94.607361 
	C128.978195,97.151680 124.865875,99.101654 121.980888,101.710045 
	C124.463882,105.997780 127.727272,111.633133 131.629333,118.371376 
	C125.373924,117.930527 119.919121,117.599403 114.474854,117.142685 
	C111.136139,116.862595 108.098030,116.659554 105.593712,119.808426 
	C103.592621,122.324554 100.839348,124.242470 98.709976,126.712952 
	C95.307091,127.000000 91.614182,127.000000 87.460632,127.000000 
M72.367897,105.399040 
	C73.644775,101.857819 75.052635,98.355316 76.117844,94.751534 
	C76.433014,93.685295 75.782051,92.333496 75.573814,91.112549 
	C74.408607,91.848061 72.885025,92.332924 72.156853,93.374100 
	C70.858276,95.230881 70.040268,97.423767 69.021301,99.476112 
	C69.384789,99.455193 69.748283,99.434280 70.111771,99.413368 
	C70.367897,101.195045 70.624031,102.976723 70.343460,105.221123 
	C68.189087,109.315208 66.034714,113.409302 63.880341,117.503387 
	C64.418518,117.786781 64.956688,118.070168 65.494865,118.353554 
	C67.646416,114.231621 69.797966,110.109688 72.367897,105.399040 
M72.129929,116.683937 
	C77.038734,114.851723 81.830673,113.531845 84.679703,120.730209 
	C85.073524,120.449768 85.467354,120.169327 85.861176,119.888885 
	C88.388100,111.667236 90.915016,103.445580 93.539139,94.907669 
	C88.808929,94.365814 85.110893,93.942192 81.942429,93.579239 
	C78.477875,101.207680 75.143135,108.550301 71.529465,116.269096 
	C71.696060,116.398056 71.862656,116.527016 72.029251,116.655983 
	C72.078224,116.547913 72.197723,116.383957 72.164017,116.341408 
	C72.013702,116.151726 71.819611,115.996727 72.129929,116.683937 
M93.319603,111.255257 
	C92.159882,114.405243 91.000168,117.555229 89.840446,120.705208 
	C90.077858,120.845612 90.315262,120.986008 90.552666,121.126404 
	C91.479294,120.288239 92.405922,119.450066 93.393112,118.557114 
	C94.721748,120.626938 95.854538,122.391670 96.987328,124.156403 
	C97.158691,123.997375 97.330055,123.838348 97.501419,123.679321 
	C96.622253,119.773796 95.743095,115.868279 95.201675,111.391159 
	C97.486763,114.129478 99.771851,116.867798 102.509041,120.147888 
	C105.869003,111.586143 113.136307,114.950874 119.946571,115.456978 
	C115.456642,106.980637 111.368248,99.262352 107.190918,91.376152 
	C104.730942,92.109108 102.302444,92.635193 100.052574,93.584595 
	C98.890831,94.074814 97.455437,95.157097 97.160591,96.246971 
	C95.865005,101.036148 94.940399,105.925682 93.319603,111.255257 
M132.714844,86.510078 
	C132.863892,85.523224 133.490204,83.992378 133.085205,83.637062 
	C130.280518,81.176453 127.261208,78.960487 124.178825,76.563339 
	C122.231049,79.043381 120.622215,81.091850 119.470108,82.558800 
	C121.855064,85.430740 124.031021,88.050987 126.060661,90.495056 
	C128.432922,89.066994 130.266342,87.963295 132.714844,86.510078 
M67.781708,86.538216 
	C66.502495,85.550926 65.223274,84.563637 63.626644,83.331367 
	C61.206707,85.833427 58.946087,88.170761 56.625061,90.570549 
	C58.296032,93.335571 59.885113,95.965088 61.783596,99.106583 
	C64.436394,95.632607 66.948730,92.443321 69.284416,89.129524 
	C69.520523,88.794548 68.690384,87.708046 67.781708,86.538216 
M58.573692,81.782990 
	C63.143993,77.582970 56.773335,76.551216 56.724392,73.352661 
	C53.214836,75.249451 50.257511,76.847778 47.494900,78.340874 
	C48.391056,81.821915 49.147327,84.759590 49.988972,88.028885 
	C52.905815,85.885513 55.414188,84.042297 58.573692,81.782990 
M117.021133,87.555702 
	C113.816711,84.805183 113.011459,88.606178 111.023415,89.371201 
	C112.427940,92.198929 113.621964,94.727646 114.928375,97.196899 
	C116.158585,99.522118 117.507263,101.784660 118.803818,104.074776 
	C119.193039,103.869965 119.582260,103.665154 119.971481,103.460342 
	C119.326431,101.871490 118.681381,100.282639 117.956268,98.496567 
	C119.761177,98.081085 121.268570,97.734085 123.254669,97.276894 
	C121.094856,93.933403 119.236374,91.056374 117.021133,87.555702 
z"/>
<path fill="#F4F4F4" opacity="1.000000" stroke="none" 
	d="
M105.531364,1.000000 
	C107.879951,4.835365 112.230080,7.256571 115.677635,7.130082 
	C119.525101,6.988919 122.635979,8.735326 123.947159,12.606870 
	C124.962212,15.604006 126.297958,17.446051 129.987625,17.624287 
	C135.141281,17.873240 135.233734,22.617603 135.911407,26.236101 
	C136.392975,28.807478 136.827606,30.580303 139.741013,31.484766 
	C141.293961,31.966877 142.341263,34.077713 143.239944,36.098030 
	C138.202591,35.511665 134.098068,43.880821 128.774170,36.679264 
	C130.856613,35.543720 132.810059,34.478516 134.976410,33.297211 
	C134.274185,30.243013 133.579086,27.219774 132.725113,23.505583 
	C128.813232,25.996490 125.162468,28.321133 121.345009,30.751923 
	C122.617851,32.836346 123.713982,34.631374 124.810112,36.426403 
	C124.530731,36.846085 124.251350,37.265766 123.971977,37.685448 
	C122.361038,36.705982 120.330986,36.069546 119.204697,34.693424 
	C109.109131,22.358507 95.264816,18.078053 79.860062,22.804161 
	C76.514236,23.830645 74.239365,22.897882 72.778603,19.647598 
	C71.630821,17.093704 70.222977,14.656687 68.866638,12.044438 
	C65.678757,12.790586 62.646152,13.500392 59.345585,14.272916 
	C59.888245,17.790384 65.766106,20.641365 60.647522,25.014759 
	C59.327396,23.804882 57.902851,22.499304 56.387180,21.110212 
	C53.747684,22.727283 51.079556,24.361897 47.836563,26.348696 
	C51.576862,29.071568 55.055943,31.604279 58.491135,34.105038 
	C60.001846,32.665665 61.278698,31.449106 62.644276,30.148014 
	C65.359962,35.624172 59.541149,39.437370 53.459248,36.619625 
	C51.503895,35.713715 49.625473,34.641754 46.697277,33.117691 
	C46.050694,34.544369 45.302586,36.195061 44.554478,37.845753 
	C44.215786,37.526257 43.877094,37.206764 43.538406,36.887272 
	C43.387730,35.358135 43.335133,33.811581 43.067234,32.303265 
	C42.377777,28.421566 43.605507,25.725821 47.276230,23.890184 
	C50.311501,22.372318 53.143219,21.056395 53.285713,16.293814 
	C53.419605,11.818666 58.589256,11.986160 62.066822,10.964771 
	C63.393478,10.575123 65.588379,10.187182 65.791924,9.390692 
	C67.584465,2.376223 73.246689,3.297326 77.736565,4.269824 
	C81.066193,4.991016 81.740341,3.898324 82.308502,1.311750 
	C89.687576,1.000000 97.375153,1.000000 105.531364,1.000000 
M123.773338,23.263226 
	C124.538940,22.406933 125.304543,21.550642 126.006683,20.765333 
	C124.158852,17.834301 122.428757,15.090039 120.578484,12.155131 
	C117.676514,15.818955 115.013618,19.180939 112.126907,22.825504 
	C114.441536,24.675758 116.570305,26.377439 119.062370,28.369528 
	C120.583534,26.705675 121.927994,25.235104 123.773338,23.263226 
M97.896858,13.554965 
	C98.212486,11.437538 98.528114,9.320111 98.857277,7.111861 
	C95.544601,5.778041 92.412689,4.517004 89.326241,3.274275 
	C89.326241,8.078350 89.326241,12.502287 89.326241,17.482841 
	C92.181000,15.442312 96.578934,20.071823 97.896858,13.554965 
M106.888885,6.087729 
	C106.212791,6.407044 105.113609,6.570024 104.928566,7.070790 
	C103.628784,10.588362 102.517441,14.175563 101.263824,17.990139 
	C103.901848,19.057644 106.254723,20.009760 108.866219,21.066530 
	C110.526016,17.748959 112.036324,14.730182 113.479126,11.846343 
	C111.201218,9.869712 109.333565,8.249082 106.888885,6.087729 
M78.810432,6.974530 
	C77.224762,6.809649 75.639091,6.644767 73.512291,6.423617 
	C74.828041,11.039072 75.992218,15.122834 77.217087,19.419493 
	C80.061569,18.635057 82.511925,17.959314 85.086418,17.249338 
	C84.701683,14.757837 84.082207,12.637117 84.115036,10.526545 
	C84.167534,7.151803 82.323784,6.682432 78.810432,6.974530 
z"/>
<path fill="#F2F2F2" opacity="1.000000" stroke="none" 
	d="
M17.141376,68.294983 
	C12.634343,68.367920 8.553010,68.367920 4.090450,68.367920 
	C7.728802,62.496727 7.609847,33.121723 4.025951,27.205122 
	C9.867196,27.205122 15.460783,26.786394 20.960238,27.326368 
	C26.152739,27.836206 29.239092,33.042088 28.963955,39.365322 
	C28.676458,45.972633 24.872902,50.418316 18.933397,50.964329 
	C17.317772,51.112850 15.676913,50.986862 13.561347,50.986862 
	C13.561347,54.786934 13.601063,58.218117 13.548110,61.647861 
	C13.509458,64.151382 13.663177,66.391121 17.037533,66.426582 
	C17.220318,66.428513 17.390842,67.596733 17.141376,68.294983 
M13.851904,32.725208 
	C13.851904,37.762657 13.851904,42.800106 13.851904,48.074551 
	C15.638737,47.960972 16.728937,48.176846 17.533611,47.793446 
	C22.157793,45.590199 23.042931,33.422871 18.700291,30.622206 
	C17.074715,29.573833 14.747952,28.456100 13.851904,32.725208 
z"/>
<path fill="#F8F8F8" opacity="1.000000" stroke="none" 
	d="
M73.506432,57.914246 
	C73.912163,61.628792 74.317909,64.856506 74.793777,68.641991 
	C74.980316,68.611763 73.980774,68.875450 72.971695,68.919189 
	C69.184967,69.083359 65.395538,69.191216 61.606354,69.290985 
	C57.137009,69.408676 53.928036,66.947586 53.139210,62.990700 
	C52.187824,58.218410 51.721741,53.042202 52.533096,48.295074 
	C53.870548,40.469864 58.963440,38.157261 67.390297,41.184650 
	C66.995445,35.864990 66.629044,30.928680 66.231979,25.579269 
	C67.454247,25.579269 70.087708,25.579269 73.506447,25.579269 
	C73.506447,35.973938 73.506447,46.700672 73.506432,57.914246 
M59.058136,61.996807 
	C60.640705,63.097191 62.223274,64.197578 63.805843,65.297958 
	C64.871002,63.645748 66.652145,62.076637 66.855515,60.324402 
	C67.309486,56.412964 67.264954,52.377640 66.823990,48.460278 
	C66.643089,46.853195 64.914703,45.420307 63.890259,43.908176 
	C62.353134,45.124947 59.701134,46.172100 59.485432,47.589905 
	C58.805874,52.056675 59.040600,56.662548 59.058136,61.996807 
z"/>
<path fill="#F4F4F4" opacity="1.000000" stroke="none" 
	d="
M103.728523,59.086563 
	C100.962074,59.416164 98.590866,59.653076 96.219666,59.889988 
	C96.026985,60.303101 95.834305,60.716213 95.641632,61.129326 
	C97.225266,61.690826 98.769836,62.474373 100.401756,62.761448 
	C102.811401,63.185329 105.577347,62.625145 107.670685,63.601170 
	C112.940048,66.058014 113.160378,74.014847 108.359230,77.891998 
	C104.463707,81.037811 97.710182,81.639610 93.274277,79.236198 
	C89.816940,77.362976 88.127243,72.904884 90.432716,70.011909 
	C92.218636,67.770874 92.834167,65.947845 92.194023,63.175625 
	C91.874664,61.792572 92.926064,60.092995 93.398148,58.389668 
	C88.670517,53.717762 87.618362,49.160656 90.365898,44.510353 
	C92.822044,40.353260 97.438072,39.150032 104.079277,40.528580 
	C106.231850,40.975399 108.555351,40.598724 110.055473,40.598724 
	C110.055473,43.198204 109.833839,45.483036 110.099937,47.709572 
	C110.723465,52.926735 109.192337,56.859966 103.728523,59.086563 
M94.413673,69.443039 
	C92.254570,71.886574 92.218170,75.131157 94.864906,76.177773 
	C97.687157,77.293793 101.357391,76.765717 104.524498,76.204842 
	C105.476448,76.036255 106.790054,73.148247 106.462776,71.889633 
	C106.150650,70.689331 104.014809,69.480675 102.503220,69.185982 
	C100.133652,68.724014 97.614815,69.027679 94.413673,69.443039 
M96.670258,44.610027 
	C95.545258,48.518513 94.983971,52.410999 98.275841,55.575756 
	C98.729118,56.011536 101.103836,55.469559 101.158508,55.141701 
	C101.725868,51.739456 102.635345,48.198891 102.168091,44.877026 
	C101.741066,41.841152 99.412498,40.824062 96.670258,44.610027 
z"/>
<path fill="#EEEEEE" opacity="1.000000" stroke="none" 
	d="
M147.422379,64.310005 
	C148.937378,59.681755 148.937378,59.681755 153.150192,59.985424 
	C152.706451,65.705704 149.953476,68.968346 144.813065,69.866043 
	C140.068802,70.694550 135.694382,68.350128 133.533035,63.601532 
	C130.993454,58.021950 130.868835,52.316544 133.429153,46.720497 
	C135.693680,41.770931 139.667053,39.405346 144.510010,40.021420 
	C149.410995,40.644867 152.118866,43.750927 153.163925,48.385754 
	C153.664169,50.604321 153.878983,52.887241 154.310516,55.713730 
	C148.828094,55.713730 143.913452,55.713730 137.317490,55.713730 
	C139.073624,60.000801 140.304596,63.361759 141.995102,66.473053 
	C142.133850,66.728447 145.398697,65.285316 147.422379,64.310005 
M143.465820,43.025623 
	C138.357803,44.556545 139.062729,48.649406 138.887253,52.496666 
	C141.840851,52.496666 144.385529,52.496666 148.327759,52.496666 
	C146.734192,48.870041 145.487244,46.032253 143.465820,43.025623 
z"/>
<path fill="#F1F1F1" opacity="1.000000" stroke="none" 
	d="
M176.605515,55.908173 
	C172.012863,55.912445 167.881561,55.912445 163.195374,55.912445 
	C163.499268,58.437019 163.327377,60.708500 164.125641,62.562187 
	C164.869751,64.290100 166.758209,66.854851 167.940872,66.750969 
	C169.691742,66.597176 172.316559,64.658623 172.698029,63.039162 
	C173.548355,59.429199 175.441330,59.529091 178.260269,60.095070 
	C177.995865,65.379547 175.261536,68.535896 170.458481,69.800728 
	C165.612411,71.076881 161.252304,68.939644 158.764786,64.429863 
	C155.369446,58.274246 155.921112,49.270657 160.007462,44.148193 
	C163.422409,39.867374 169.007385,38.751728 173.325272,41.487835 
	C177.303711,44.008839 180.145676,51.706280 178.411514,55.451271 
	C178.274841,55.746410 177.529373,55.759647 176.605515,55.908173 
M163.850876,52.545620 
	C166.541504,52.672325 169.232147,52.799026 172.123016,52.935162 
	C171.759521,48.677532 172.744797,43.580601 167.995804,43.434387 
	C163.840744,43.306458 164.056931,48.303856 163.850876,52.545620 
z"/>
<path fill="#F4F4F4" opacity="1.000000" stroke="none" 
	d="
M27.699215,56.445633 
	C28.470190,52.211201 28.705956,48.123093 30.249931,44.609924 
	C31.953810,40.732914 35.672905,38.747040 40.111145,39.246067 
	C44.520836,39.741875 47.402401,42.449894 48.705860,46.570240 
	C49.494381,49.062809 49.697002,51.740723 50.271603,54.940964 
	C44.661633,54.940964 39.574215,54.940964 34.010845,54.940964 
	C34.892342,59.389061 33.417667,64.545410 38.562481,65.975914 
	C43.427624,67.328659 43.589481,62.466770 44.589790,59.193153 
	C46.248814,59.193153 47.683628,59.193153 49.141083,59.193153 
	C48.441856,64.993576 45.553520,68.369286 40.854172,69.031464 
	C35.501648,69.785683 31.292183,67.556572 29.223305,62.602924 
	C28.467426,60.793068 28.220123,58.770809 27.699215,56.445633 
M39.406155,42.246811 
	C34.180439,43.570442 35.271912,48.070789 34.283901,51.765598 
	C37.407261,51.765598 40.160137,51.765598 44.255356,51.765598 
	C42.646683,48.243797 41.358627,45.423908 39.406155,42.246811 
z"/>
<path fill="#F4F4F4" opacity="1.000000" stroke="none" 
	d="
M126.947693,40.072998 
	C128.593887,43.435024 129.846497,46.728413 131.374390,50.745567 
	C128.554993,50.745567 127.311943,50.745567 125.814880,50.745567 
	C125.466072,48.903255 125.095482,46.945934 124.654503,44.616783 
	C121.043747,48.076050 121.361374,64.171715 124.896996,68.779755 
	C120.947594,68.779755 117.282280,68.779755 113.556519,68.779755 
	C117.074295,62.978146 117.015503,45.675343 113.164253,40.786087 
	C117.839058,40.513161 122.196587,40.258755 126.947693,40.072998 
z"/>
<path fill="#E7E7E7" opacity="1.000000" stroke="none" 
	d="
M78.738586,42.264450 
	C78.633644,41.371906 78.876625,40.158726 79.205841,40.134853 
	C81.510208,39.967758 83.832375,40.046394 86.215698,40.046394 
	C88.262154,49.520233 84.444649,59.309818 88.844292,68.634453 
	C85.254532,68.634453 81.639824,68.634453 78.336967,68.634453 
	C81.269318,59.815968 80.875626,51.184032 78.738586,42.264450 
z"/>
<path fill="#E7E7E7" opacity="1.000000" stroke="none" 
	d="
M80.135063,30.880056 
	C81.307350,29.121149 82.505295,27.739521 83.703239,26.357893 
	C84.464668,28.024445 85.686615,29.655489 85.818855,31.370554 
	C85.901260,32.439304 84.336967,33.635025 83.511688,34.773766 
	C82.394699,33.601624 81.277710,32.429478 80.135063,30.880056 
z"/>
<path fill="none" opacity="1.000000" stroke="none" 
	d="
M93.881310,110.778831 
	C94.940399,105.925682 95.865005,101.036148 97.160591,96.246971 
	C97.455437,95.157097 98.890831,94.074814 100.052574,93.584595 
	C102.302444,92.635193 104.730942,92.109108 107.190918,91.376152 
	C111.368248,99.262352 115.456642,106.980637 119.946571,115.456978 
	C113.136307,114.950874 105.869003,111.586143 102.509041,120.147888 
	C99.771851,116.867798 97.486763,114.129478 94.815979,111.530533 
	C94.247284,111.372879 94.064293,111.075851 93.881310,110.778831 
z"/>
<path fill="none" opacity="1.000000" stroke="none" 
	d="
M71.808395,115.892921 
	C75.143135,108.550301 78.477875,101.207680 81.942429,93.579239 
	C85.110893,93.942192 88.808929,94.365814 93.539139,94.907669 
	C90.915016,103.445580 88.388100,111.667236 85.861176,119.888885 
	C85.467354,120.169327 85.073524,120.449768 84.679703,120.730209 
	C81.830673,113.531845 77.038734,114.851723 71.928291,116.270164 
	C71.726654,115.856392 71.808403,115.892921 71.808395,115.892921 
z"/>
<path fill="none" opacity="1.000000" stroke="none" 
	d="
M132.407303,86.684837 
	C130.266342,87.963295 128.432922,89.066994 126.060661,90.495056 
	C124.031021,88.050987 121.855064,85.430740 119.470108,82.558800 
	C120.622215,81.091850 122.231049,79.043381 124.178825,76.563339 
	C127.261208,78.960487 130.280518,81.176453 133.085205,83.637062 
	C133.490204,83.992378 132.863892,85.523224 132.407303,86.684837 
z"/>
<path fill="none" opacity="1.000000" stroke="none" 
	d="
M68.068382,86.754257 
	C68.690384,87.708046 69.520523,88.794548 69.284416,89.129524 
	C66.948730,92.443321 64.436394,95.632607 61.783596,99.106583 
	C59.885113,95.965088 58.296032,93.335571 56.625061,90.570549 
	C58.946087,88.170761 61.206707,85.833427 63.626644,83.331367 
	C65.223274,84.563637 66.502495,85.550926 68.068382,86.754257 
z"/>
<path fill="none" opacity="1.000000" stroke="none" 
	d="
M58.248131,81.991035 
	C55.414188,84.042297 52.905815,85.885513 49.988972,88.028885 
	C49.147327,84.759590 48.391056,81.821915 47.494900,78.340874 
	C50.257511,76.847778 53.214836,75.249451 56.724392,73.352661 
	C56.773335,76.551216 63.143993,77.582970 58.248131,81.991035 
z"/>
<path fill="none" opacity="1.000000" stroke="none" 
	d="
M117.199509,87.867523 
	C119.236374,91.056374 121.094856,93.933403 123.254669,97.276894 
	C121.268570,97.734085 119.761177,98.081085 117.956268,98.496567 
	C118.681381,100.282639 119.326431,101.871490 119.971481,103.460342 
	C119.582260,103.665154 119.193039,103.869965 118.803818,104.074776 
	C117.507263,101.784660 116.158585,99.522118 114.928375,97.196899 
	C113.621964,94.727646 112.427940,92.198929 111.023415,89.371201 
	C113.011459,88.606178 113.816711,84.805183 117.199509,87.867523 
z"/>
<path fill="none" opacity="1.000000" stroke="none" 
	d="
M70.880157,104.758408 
	C70.624031,102.976723 70.367897,101.195045 70.111771,99.413368 
	C69.748283,99.434280 69.384789,99.455193 69.021301,99.476112 
	C70.040268,97.423767 70.858276,95.230881 72.156853,93.374100 
	C72.885025,92.332924 74.408607,91.848061 75.573814,91.112549 
	C75.782051,92.333496 76.433014,93.685295 76.117844,94.751534 
	C75.052635,98.355316 73.644775,101.857819 71.920708,105.548508 
	C71.275726,105.384781 71.077942,105.071594 70.880157,104.758408 
z"/>
<path fill="none" opacity="1.000000" stroke="none" 
	d="
M93.600456,111.017044 
	C94.064293,111.075851 94.247284,111.372879 94.647110,111.816330 
	C95.743095,115.868279 96.622253,119.773796 97.501419,123.679321 
	C97.330055,123.838348 97.158691,123.997375 96.987328,124.156403 
	C95.854538,122.391670 94.721748,120.626938 93.393112,118.557114 
	C92.405922,119.450066 91.479294,120.288239 90.552666,121.126404 
	C90.315262,120.986008 90.077858,120.845612 89.840446,120.705208 
	C91.000168,117.555229 92.159882,114.405243 93.600456,111.017044 
z"/>
<path fill="none" opacity="1.000000" stroke="none" 
	d="
M70.611809,104.989761 
	C71.077942,105.071594 71.275726,105.384781 71.711517,105.842865 
	C69.797966,110.109688 67.646416,114.231621 65.494865,118.353554 
	C64.956688,118.070168 64.418518,117.786781 63.880341,117.503387 
	C66.034714,113.409302 68.189087,109.315208 70.611809,104.989761 
z"/>
<path fill="none" opacity="1.000000" stroke="none" 
	d="
M71.683990,115.842804 
	C71.819611,115.996727 72.013702,116.151726 72.164017,116.341408 
	C72.197723,116.383957 72.078224,116.547913 72.029251,116.655983 
	C71.862656,116.527016 71.696060,116.398056 71.668930,116.081009 
	C71.808403,115.892921 71.726654,115.856392 71.683990,115.842804 
z"/>
<path fill="none" opacity="1.000000" stroke="none" 
	d="
M123.522896,23.513878 
	C121.927994,25.235104 120.583534,26.705675 119.062370,28.369528 
	C116.570305,26.377439 114.441536,24.675758 112.126907,22.825504 
	C115.013618,19.180939 117.676514,15.818955 120.578484,12.155131 
	C122.428757,15.090039 124.158852,17.834301 126.006683,20.765333 
	C125.304543,21.550642 124.538940,22.406933 123.522896,23.513878 
z"/>
<path fill="none" opacity="1.000000" stroke="none" 
	d="
M97.861450,13.983730 
	C96.578934,20.071823 92.181000,15.442312 89.326241,17.482841 
	C89.326241,12.502287 89.326241,8.078350 89.326241,3.274275 
	C92.412689,4.517004 95.544601,5.778041 98.857277,7.111861 
	C98.528114,9.320111 98.212486,11.437538 97.861450,13.983730 
z"/>
<path fill="none" opacity="1.000000" stroke="none" 
	d="
M107.177399,6.358090 
	C109.333565,8.249082 111.201218,9.869712 113.479126,11.846343 
	C112.036324,14.730182 110.526016,17.748959 108.866219,21.066530 
	C106.254723,20.009760 103.901848,19.057644 101.263824,17.990139 
	C102.517441,14.175563 103.628784,10.588362 104.928566,7.070790 
	C105.113609,6.570024 106.212791,6.407044 107.177399,6.358090 
z"/>
<path fill="none" opacity="1.000000" stroke="none" 
	d="
M79.236084,6.987634 
	C82.323784,6.682432 84.167534,7.151803 84.115036,10.526545 
	C84.082207,12.637117 84.701683,14.757837 85.086418,17.249338 
	C82.511925,17.959314 80.061569,18.635057 77.217087,19.419493 
	C75.992218,15.122834 74.828041,11.039072 73.512291,6.423617 
	C75.639091,6.644767 77.224762,6.809649 79.236084,6.987634 
z"/>
<path fill="none" opacity="1.000000" stroke="none" 
	d="
M13.853510,32.256577 
	C14.747952,28.456100 17.074715,29.573833 18.700291,30.622206 
	C23.042931,33.422871 22.157793,45.590199 17.533611,47.793446 
	C16.728937,48.176846 15.638737,47.960972 13.851904,48.074551 
	C13.851904,42.800106 13.851904,37.762657 13.853510,32.256577 
z"/>
<path fill="none" opacity="1.000000" stroke="none" 
	d="
M58.989799,61.605694 
	C59.040600,56.662548 58.805874,52.056675 59.485432,47.589905 
	C59.701134,46.172100 62.353134,45.124947 63.890259,43.908176 
	C64.914703,45.420307 66.643089,46.853195 66.823990,48.460278 
	C67.264954,52.377640 67.309486,56.412964 66.855515,60.324402 
	C66.652145,62.076637 64.871002,63.645748 63.805843,65.297958 
	C62.223274,64.197578 60.640705,63.097191 58.989799,61.605694 
z"/>
<path fill="none" opacity="1.000000" stroke="none" 
	d="
M94.786438,69.225052 
	C97.614815,69.027679 100.133652,68.724014 102.503220,69.185982 
	C104.014809,69.480675 106.150650,70.689331 106.462776,71.889633 
	C106.790054,73.148247 105.476448,76.036255 104.524498,76.204842 
	C101.357391,76.765717 97.687157,77.293793 94.864906,76.177773 
	C92.218170,75.131157 92.254570,71.886574 94.786438,69.225052 
z"/>
<path fill="none" opacity="1.000000" stroke="none" 
	d="
M96.848251,44.250534 
	C99.412498,40.824062 101.741066,41.841152 102.168091,44.877026 
	C102.635345,48.198891 101.725868,51.739456 101.158508,55.141701 
	C101.103836,55.469559 98.729118,56.011536 98.275841,55.575756 
	C94.983971,52.410999 95.545258,48.518513 96.848251,44.250534 
z"/>
<path fill="none" opacity="1.000000" stroke="none" 
	d="
M143.853058,43.110046 
	C145.487244,46.032253 146.734192,48.870041 148.327759,52.496666 
	C144.385529,52.496666 141.840851,52.496666 138.887253,52.496666 
	C139.062729,48.649406 138.357803,44.556545 143.853058,43.110046 
z"/>
<path fill="none" opacity="1.000000" stroke="none" 
	d="
M163.713776,52.110413 
	C164.056931,48.303856 163.840744,43.306458 167.995804,43.434387 
	C172.744797,43.580601 171.759521,48.677532 172.123016,52.935162 
	C169.232147,52.799026 166.541504,52.672325 163.713776,52.110413 
z"/>
<path fill="none" opacity="1.000000" stroke="none" 
	d="
M39.738365,42.425415 
	C41.358627,45.423908 42.646683,48.243797 44.255356,51.765598 
	C40.160137,51.765598 37.407261,51.765598 34.283901,51.765598 
	C35.271912,48.070789 34.180439,43.570442 39.738365,42.425415 
z"/>
</svg>