<svg width="697" height="384" viewBox="0 0 697 384" fill="none" xmlns="http://www.w3.org/2000/svg">
<path fill-rule="evenodd" clip-rule="evenodd" d="M697 113.928V384H3.61361L3.39984 382.921L2.58334 378.22L1.8795 373.51L1.28812 368.794L0.80882 364.074L0.441108 359.353L0.184309 354.632L0.0376001 349.916L0 345.206L0.0703724 340.505L0.247427 335.816L0.529723 331.141L0.915669 326.482L1.40353 321.842L1.99142 317.224L2.67733 312.629L3.45911 308.06L4.33449 303.52L5.30105 299.009L6.35628 294.531L7.49756 290.088L8.72217 285.68L10.0273 281.311L11.4099 276.981L12.8672 272.692L14.396 268.446L15.9932 264.245L17.6556 260.088L19.3801 255.979L21.1632 251.916L23.0018 247.902L24.8925 243.937L26.8321 240.023L28.8171 236.158L30.8443 232.344L32.9105 228.582L35.0123 224.871L37.1465 221.211L39.3101 217.602L41.4999 214.044L43.713 210.538L45.9466 207.082L48.1977 203.675L50.4638 200.319L52.7423 197.011L55.0307 193.751L57.3266 190.538L59.6278 187.371L61.9322 184.25L64.2378 181.174L66.5428 178.14L68.8454 175.149L71.144 172.199L73.4372 169.289L75.7236 166.417L78.0021 163.583L80.2716 160.785L82.5312 158.022L84.7801 155.292L87.0177 152.595L89.2434 149.929L91.4568 147.293L93.6577 144.686L95.846 142.106L98.0215 139.553L100.184 137.025L102.335 134.521L104.473 132.04L106.6 129.581L108.715 127.143L110.82 124.726L112.915 122.328L115 119.949L117.077 117.587L119.146 115.243L121.208 112.916L123.264 110.604L125.315 108.308L127.362 106.028L129.406 103.762L131.449 101.51L133.49 99.2727L135.531 97.0492L137.573 94.8394L139.618 92.6431L141.665 90.4602L143.716 88.2907L145.772 86.1344L147.834 83.9915L149.902 81.862L151.979 79.7461L154.064 77.644L156.159 75.5561L158.265 73.4827L160.383 71.4243L162.514 69.3814L164.659 67.3545L166.818 65.3443L168.994 63.3514L171.187 61.3765L173.397 59.4205L175.625 57.4841L177.873 55.5682L180.141 53.6736L182.43 51.8012L184.74 49.952L187.071 48.1268L189.425 46.3266L191.802 44.5522L194.201 42.8048L196.624 41.085L199.07 39.3939L201.539 37.7322L204.032 36.1009L206.548 34.5006L209.087 32.9322L211.65 31.3963L214.235 29.8935L216.842 28.4245L219.471 26.9896L222.122 25.5896L224.794 24.2248L227.486 22.8959L230.199 21.6033L232.931 20.3477L235.682 19.1295L238.452 17.9492L241.239 16.8073L244.044 15.7041L246.866 14.6402L249.704 13.6157L252.557 12.631L255.424 11.6863L258.305 10.7817L261.199 9.91727L264.106 9.09306L267.023 8.30898L269.951 7.56487L272.889 6.8605L275.836 6.19554L278.79 5.56961L281.752 4.98222L284.719 4.43281L287.693 3.92073L290.67 3.44527L293.652 3.00563L296.637 2.60095L299.624 2.23032L302.613 1.89273L305.603 1.58716L308.593 1.31251L311.584 1.06767L314.574 0.851468L317.563 0.662738L320.552 0.500283L323.538 0.362904L326.524 0.24941L329.508 0.15862L332.49 0.0893803L335.47 0.0405711L338.449 0.0111176L341.426 0L344.401 0.00626382L347.376 0.0290301L350.35 0.0675049L353.323 0.120989L356.296 0.188888L359.269 0.270718L362.243 0.366118L365.218 0.474825L368.194 0.596616L371.173 0.731296L374.153 0.878701L377.136 1.0387L380.123 1.21118L383.113 1.39609L386.108 1.59339L389.107 1.80309L392.112 2.02523L395.122 2.25989L398.138 2.50718L401.161 2.76728L404.191 3.04037L407.228 3.32669L410.274 3.6265L413.328 3.94013L416.39 4.2679L419.462 4.61021L422.544 4.96747L425.635 5.34012L428.737 5.72863L431.849 6.13353L434.972 6.55533L438.107 6.9946L441.252 7.45193L444.41 7.9279L447.579 8.42315L450.76 8.93831L453.954 9.47404L457.159 10.031L460.377 10.6099L463.607 11.2113L466.85 11.836L470.106 12.4844L473.374 13.1572L476.655 13.8547L479.949 14.5773L483.256 15.3253L486.578 16.0991L489.912 16.8989L493.262 17.7248L496.626 18.5771L500.005 19.456L503.399 20.3616L506.81 21.294L510.238 22.2534L513.682 23.2401L517.145 24.2541L520.626 25.2957L524.126 26.365L527.646 27.4625L531.187 28.5883L534.748 29.7429L538.332 30.9265L541.937 32.1398L545.566 33.3831L549.219 34.6571L552.895 35.9624L556.596 37.2997L560.323 38.6698L564.075 40.0735L567.852 41.5117L571.656 42.9855L575.486 44.4959L579.342 46.044L583.224 47.631L587.132 49.2582L591.065 50.927L595.023 52.6387L599.006 54.3949L603.012 56.197L607.041 58.0465L611.092 59.9452L615.162 61.8946L619.251 63.8964L623.357 65.9523L627.479 68.0641L631.613 70.2335L635.758 72.4621L639.911 74.7518L644.069 77.1041L648.23 79.5207L652.39 82.0034L656.547 84.5534L660.696 87.1724L664.834 89.8615L668.958 92.622L673.064 95.455L677.148 98.3614L681.207 101.342L685.236 104.398L689.233 107.529L693.192 110.736L697 113.928Z" fill="#FFEBCC"/>
</svg>
