<svg width="587" height="491" viewBox="0 0 587 491" fill="none" xmlns="http://www.w3.org/2000/svg">
<path fill-rule="evenodd" clip-rule="evenodd" d="M0 448.601V0H522.3L524.528 2.32286L528.047 6.13708L531.492 10.0249L534.861 13.9853L538.15 18.0171L541.355 22.1192L544.473 26.29L547.5 30.5282L550.434 34.832L553.27 39.1997L556.006 43.6295L558.64 48.1193L561.167 52.6672L563.586 57.2708L565.895 61.928L568.09 66.6364L570.171 71.3936L572.134 76.1972L573.979 81.0445L575.704 85.9331L577.308 90.8603L578.79 95.8234L580.149 100.82L581.385 105.847L582.498 110.903L583.487 115.983L584.353 121.087L585.095 126.211L585.714 131.353L586.212 136.51L586.588 141.68L586.844 146.861L586.981 152.05L587 157.245L586.902 162.444L586.69 167.645L586.363 172.846L585.925 178.045L585.377 183.24L584.72 188.43L583.956 193.613L583.088 198.787L582.117 203.951L581.045 209.104L579.874 214.244L578.606 219.37L577.243 224.481L575.786 229.576L574.238 234.653L572.6 239.712L570.875 244.753L569.062 249.773L567.165 254.772L565.185 259.75L563.122 264.705L560.979 269.638L558.757 274.546L556.457 279.43L554.079 284.288L551.625 289.12L549.096 293.925L546.492 298.702L543.815 303.451L541.063 308.17L538.238 312.857L535.341 317.514L532.371 322.137L529.329 326.726L526.214 331.28L523.028 335.797L519.77 340.276L516.44 344.717L513.039 349.117L509.567 353.475L506.023 357.789L502.409 362.06L498.725 366.284L494.97 370.46L491.145 374.587L487.25 378.664L483.287 382.688L479.254 386.658L475.153 390.573L470.984 394.431L466.747 398.23L462.444 401.97L458.075 405.647L453.641 409.261L449.142 412.81L444.58 416.292L439.955 419.707L435.269 423.052L430.522 426.327L425.716 429.529L420.852 432.658L415.931 435.713L410.954 438.691L405.924 441.592L400.842 444.414L395.708 447.158L390.525 449.821L385.295 452.403L380.018 454.903L374.698 457.321L369.335 459.655L363.931 461.905L358.489 464.071L353.01 466.152L347.496 468.148L341.949 470.058L336.372 471.883L330.765 473.622L325.131 475.276L319.471 476.844L313.789 478.326L308.086 479.724L302.363 481.036L296.623 482.264L290.867 483.408L285.098 484.468L279.317 485.446L273.526 486.341L267.727 487.154L261.922 487.887L256.112 488.54L250.299 489.114L244.485 489.61L238.671 490.028L232.858 490.371L227.049 490.638L221.244 490.831L215.445 490.952L209.654 491L203.87 490.978L198.097 490.886L192.334 490.726L186.583 490.498L180.844 490.205L175.12 489.846L169.41 489.424L163.715 488.939L158.037 488.393L152.376 487.786L146.733 487.12L141.107 486.396L135.501 485.615L129.914 484.777L124.348 483.885L118.801 482.938L113.276 481.938L107.771 480.886L102.288 479.783L96.8271 478.629L91.3883 477.424L85.9719 476.171L80.5782 474.869L75.2076 473.518L69.8602 472.119L64.5364 470.673L59.2364 469.18L53.9605 467.64L48.7089 466.054L43.4822 464.42L38.2804 462.741L33.104 461.014L27.9535 459.242L22.8291 457.422L17.7315 455.556L12.661 453.643L7.61831 451.683L2.60389 449.675L0 448.601Z" fill="#FFEBCC"/>
</svg>
