<svg width="628" height="624" viewBox="0 0 628 624" fill="none" xmlns="http://www.w3.org/2000/svg">
<path fill-rule="evenodd" clip-rule="evenodd" d="M629 68.8624L627.479 68.0641L623.357 65.9523L619.251 63.8964L615.162 61.8946L611.092 59.9452L607.041 58.0465L603.012 56.197L599.006 54.3949L595.023 52.6387L591.065 50.927L587.132 49.2582L583.224 47.631L579.342 46.044L575.486 44.4959L571.656 42.9855L567.852 41.5117L564.075 40.0735L560.323 38.6698L556.596 37.2997L552.895 35.9624L549.219 34.6571L545.566 33.3831L541.937 32.1398L538.332 30.9265L534.748 29.7429L531.187 28.5883L527.646 27.4625L524.126 26.365L520.626 25.2957L517.145 24.2541L513.682 23.2401L510.238 22.2534L506.81 21.294L503.399 20.3616L500.005 19.456L496.626 18.5771L493.262 17.7248L489.912 16.8989L486.578 16.0991L483.256 15.3253L479.949 14.5773L476.655 13.8547L473.374 13.1572L470.106 12.4844L466.85 11.836L463.607 11.2113L460.377 10.6099L457.159 10.031L453.954 9.47404L450.76 8.93831L447.579 8.42315L444.41 7.9279L441.252 7.45193L438.107 6.9946L434.972 6.55533L431.849 6.13353L428.737 5.72863L425.635 5.34012L422.544 4.96747L419.462 4.61021L416.39 4.2679L413.328 3.94013L410.274 3.6265L407.228 3.32669L404.191 3.04037L401.161 2.76728L398.138 2.50718L395.122 2.25989L392.112 2.02523L389.107 1.80309L386.108 1.59339L383.113 1.39609L380.123 1.21118L377.136 1.0387L374.153 0.878701L371.173 0.731296L368.194 0.596616L365.218 0.474825L362.243 0.366118L359.269 0.270718L356.296 0.188888L353.323 0.120989L350.35 0.0675049L347.376 0.0290301L344.401 0.00626382L341.426 0L338.449 0.0111176L335.47 0.0405711L332.49 0.0893803L329.508 0.15862L326.524 0.24941L323.538 0.362904L320.552 0.500283L317.563 0.662738L314.574 0.851468L311.584 1.06767L308.593 1.31251L305.603 1.58716L302.613 1.89273L299.624 2.23032L296.637 2.60095L293.652 3.00563L290.67 3.44527L287.693 3.92073L284.719 4.43281L281.752 4.98222L278.79 5.56961L275.836 6.19554L272.889 6.8605L269.951 7.56487L267.023 8.30898L264.106 9.09306L261.199 9.91727L258.305 10.7817L255.424 11.6863L252.557 12.631L249.704 13.6157L246.866 14.6402L244.044 15.7041L241.239 16.8073L238.452 17.9492L235.682 19.1295L232.931 20.3477L230.199 21.6033L227.486 22.8959L224.794 24.2248L222.122 25.5896L219.471 26.9896L216.842 28.4245L214.235 29.8935L211.65 31.3963L209.087 32.9322L206.548 34.5006L204.032 36.1009L201.539 37.7322L199.07 39.3939L196.624 41.085L194.201 42.8048L191.802 44.5522L189.425 46.3266L187.071 48.1268L184.74 49.952L182.43 51.8012L180.141 53.6736L177.873 55.5682L175.625 57.4841L173.397 59.4205L171.187 61.3765L168.994 63.3514L166.818 65.3443L164.659 67.3545L162.514 69.3814L160.383 71.4243L158.265 73.4827L156.159 75.5561L154.064 77.644L151.979 79.7461L149.902 81.862L147.834 83.9915L145.772 86.1344L143.716 88.2907L141.665 90.4602L139.618 92.6431L137.573 94.8394L135.531 97.0492L133.49 99.2727L131.449 101.51L129.406 103.762L127.362 106.028L125.315 108.308L123.264 110.604L121.208 112.916L119.146 115.243L117.077 117.587L115 119.949L112.915 122.328L110.82 124.726L108.715 127.143L106.6 129.581L104.473 132.04L102.335 134.521L100.184 137.025L98.0215 139.553L95.846 142.106L93.6577 144.686L91.4568 147.293L89.2434 149.929L87.0177 152.595L84.7801 155.292L82.5312 158.022L80.2716 160.785L78.0021 163.583L75.7236 166.417L73.4372 169.289L71.144 172.199L68.8454 175.149L66.5428 178.14L64.2378 181.174L61.9322 184.25L59.6278 187.371L57.3266 190.538L55.0307 193.751L52.7423 197.011L50.4638 200.319L48.1977 203.675L45.9466 207.082L43.713 210.538L41.4999 214.044L39.3101 217.602L37.1465 221.211L35.0123 224.871L32.9105 228.582L30.8443 232.344L28.8171 236.158L26.8321 240.023L24.8925 243.937L23.0018 247.902L21.1632 251.916L19.3801 255.979L17.6556 260.088L15.9932 264.245L14.396 268.446L12.8672 272.692L11.4099 276.981L10.0273 281.311L8.72217 285.68L7.49756 290.088L6.35628 294.531L5.30105 299.009L4.33449 303.52L3.45911 308.06L2.67733 312.629L1.99142 317.224L1.40353 321.842L0.915669 326.482L0.529723 331.141L0.247427 335.816L0.0703724 340.505L0 345.206L0.0376001 349.916L0.184309 354.632L0.441108 359.353L0.80882 364.074L1.28812 368.794L1.8795 373.51L2.58334 378.22L3.39984 382.921L4.32911 387.611L5.3711 392.286L6.52566 396.945L7.7925 401.586L9.17124 406.205L10.6613 410.8L12.2621 415.37L13.9729 419.911L15.7928 424.421L17.7207 428.9L19.7556 433.343L21.8963 437.75L24.1414 442.118L26.4896 446.445L28.9393 450.731L31.489 454.972L34.1369 459.168L36.8813 463.317L39.7205 467.418L42.6523 471.468L45.675 475.468L48.7865 479.416L51.9847 483.31L55.2675 487.151L58.6328 490.937L62.0783 494.667L65.6019 498.341L69.2014 501.959L72.8746 505.52L76.6192 509.023L80.433 512.469L84.3138 515.858L88.2595 519.189L92.2678 522.462L96.3367 525.678L100.464 528.836L104.648 531.938L108.886 534.983L113.177 537.971L117.518 540.904L121.908 543.781L126.346 546.603L130.829 549.371L135.355 552.085L139.924 554.745L144.534 557.352L149.183 559.907L153.871 562.41L158.595 564.862L163.356 567.263L168.151 569.613L172.981 571.913L177.843 574.163L182.737 576.364L187.663 578.516L192.618 580.619L197.604 582.675L202.618 584.683L207.661 586.643L212.731 588.556L217.829 590.422L222.953 592.242L228.104 594.014L233.28 595.741L238.482 597.42L243.709 599.054L248.96 600.64L254.236 602.18L259.536 603.673L264.86 605.119L270.208 606.518L275.578 607.869L280.972 609.171L286.388 610.424L291.827 611.629L297.288 612.783L302.771 613.886L308.276 614.938L313.801 615.938L319.348 616.885L324.914 617.777L330.501 618.615L336.107 619.396L341.733 620.12L347.376 620.786L353.037 621.393L358.715 621.939L364.41 622.424L370.12 622.846L375.844 623.205L381.583 623.498L387.334 623.726L393.097 623.886L398.87 623.978L404.654 624L410.445 623.952L416.244 623.831L422.049 623.638L427.858 623.371L433.671 623.028L439.485 622.61L445.299 622.114L451.112 621.54L456.922 620.887L462.727 620.154L468.526 619.341L474.317 618.445L480.098 617.468L485.867 616.408L491.623 615.264L497.363 614.036L503.086 612.724L508.789 611.326L514.471 609.844L520.131 608.276L525.765 606.622L531.372 604.883L536.949 603.058L542.496 601.148L548.01 599.152L553.489 597.071L558.931 594.905L564.335 592.655L569.698 590.321L575.018 587.903L580.295 585.403L585.525 582.821L590.708 580.158L595.842 577.414L600.924 574.592L605.954 571.691L610.931 568.713L615.852 565.658L620.716 562.529L625.522 559.327L629 556.928V68.8624Z" fill="#FFB045" fill-opacity="0.52"/>
</svg>
