<svg width="632" height="494" viewBox="0 0 632 494" fill="none" xmlns="http://www.w3.org/2000/svg">
<path fill-rule="evenodd" clip-rule="evenodd" d="M-10 424.788L-5.4662 427.352L-0.816895 429.907L3.87068 432.41L8.59532 434.862L13.3559 437.263L18.1514 439.613L22.9807 441.913L27.8429 444.163L32.7372 446.364L37.6626 448.516L42.6184 450.619L47.6039 452.675L52.6183 454.683L57.661 456.643L62.7315 458.556L67.8291 460.422L72.9535 462.242L78.104 464.014L83.2804 465.741L88.4821 467.42L93.7089 469.054L98.9605 470.64L104.236 472.18L109.536 473.673L114.86 475.119L120.208 476.518L125.578 477.869L130.972 479.171L136.388 480.424L141.827 481.629L147.288 482.783L152.771 483.886L158.276 484.938L163.801 485.938L169.348 486.885L174.914 487.777L180.501 488.615L186.107 489.396L191.733 490.12L197.376 490.786L203.037 491.393L208.715 491.939L214.41 492.424L220.12 492.846L225.844 493.205L231.583 493.498L237.334 493.726L243.097 493.886L248.87 493.978L254.654 494L260.445 493.952L266.244 493.831L272.049 493.638L277.858 493.371L283.671 493.028L289.485 492.61L295.299 492.114L301.112 491.54L306.922 490.887L312.727 490.154L318.526 489.341L324.317 488.445L330.098 487.468L335.867 486.408L341.623 485.264L347.363 484.036L353.086 482.724L358.789 481.326L364.471 479.844L370.131 478.276L375.765 476.622L381.372 474.883L386.949 473.058L392.496 471.148L398.01 469.152L403.489 467.071L408.931 464.905L414.335 462.655L419.698 460.321L425.018 457.903L430.295 455.403L435.525 452.821L440.708 450.158L445.842 447.414L450.924 444.592L455.954 441.691L460.931 438.713L465.852 435.658L470.716 432.529L475.522 429.327L480.269 426.052L484.955 422.707L489.58 419.292L494.142 415.81L498.641 412.261L503.075 408.647L507.444 404.969L511.747 401.23L515.984 397.431L520.153 393.573L524.254 389.658L528.287 385.688L532.25 381.664L536.145 377.587L539.97 373.46L543.725 369.284L547.409 365.06L551.023 360.789L554.567 356.475L558.039 352.117L561.44 347.717L564.77 343.276L568.028 338.797L571.214 334.28L574.329 329.726L577.371 325.137L580.341 320.514L583.238 315.857L586.063 311.17L588.815 306.451L591.492 301.702L594.096 296.925L596.625 292.12L599.079 287.288L601.457 282.43L603.757 277.546L605.979 272.638L608.122 267.705L610.185 262.75L612.165 257.772L614.062 252.773L615.875 247.753L617.6 242.712L619.238 237.653L620.786 232.576L622.243 227.481L623.606 222.37L624.874 217.244L626.045 212.104L627.117 206.951L628.088 201.787L628.956 196.613L629.72 191.43L630.377 186.24L630.925 181.045L631.363 175.846L631.69 170.645L631.902 165.444L632 160.245L631.981 155.05L631.844 149.861L631.588 144.68L631.212 139.51L630.714 134.353L630.095 129.211L629.353 124.087L628.487 118.983L627.498 113.903L626.385 108.847L625.149 103.82L623.79 98.8234L622.308 93.8602L620.704 88.9331L618.979 84.0445L617.134 79.1972L615.171 74.3936L613.09 69.6364L610.895 64.928L608.586 60.2708L606.167 55.6672L603.64 51.1193L601.006 46.6295L598.27 42.1997L595.434 37.832L592.5 33.5282L589.473 29.29L586.355 25.1192L583.15 21.0171L579.861 16.9853L576.492 13.0249L573.047 9.13708L569.528 5.32286L565.941 1.58305L564.364 0H-10V424.788Z" fill="#FFEBEB" fill-opacity="0.83"/>
</svg>
