<svg width="868" height="833" viewBox="0 0 868 833" fill="none" xmlns="http://www.w3.org/2000/svg">
<path fill-rule="evenodd" clip-rule="evenodd" d="M867.925 513.524L868 519.124L867.979 524.725L867.864 530.325L867.655 535.922L867.353 541.515L866.959 547.102L866.475 552.682L865.902 558.253L865.241 563.812L864.492 569.361L863.658 574.895L862.74 580.415L861.738 585.919L860.654 591.406L859.49 596.874L858.245 602.322L856.921 607.75L855.517 613.155L854.033 618.536L852.468 623.891L850.823 629.22L849.095 634.52L847.283 639.789L845.387 645.026L843.405 650.228L841.334 655.393L839.174 660.519L836.923 665.604L834.58 670.646L832.142 675.641L829.609 680.586L826.979 685.481L824.252 690.321L821.425 695.104L818.5 699.827L815.474 704.489L812.349 709.085L809.125 713.613L805.802 718.072L802.38 722.458L798.861 726.77L795.245 731.004L791.535 735.159L787.73 739.232L783.833 743.222L779.846 747.126L775.769 750.942L771.606 754.669L767.358 758.305L763.028 761.848L758.619 765.296L754.132 768.649L749.57 771.905L744.937 775.064L740.236 778.124L735.47 781.084L730.641 783.945L725.754 786.705L720.812 789.364L715.818 791.923L710.776 794.381L705.69 796.739L700.562 798.997L695.398 801.155L690.2 803.215L684.973 805.177L679.72 807.042L674.444 808.811L669.151 810.487L663.842 812.069L658.523 813.561L653.197 814.963L647.867 816.279L642.538 817.509L637.212 818.656L631.893 819.724L626.584 820.713L621.289 821.627L616.012 822.468L610.754 823.24L605.519 823.945L600.309 824.586L595.129 825.166L589.979 825.689L584.863 826.158L579.782 826.575L574.74 826.944L569.737 827.268L564.776 827.551L559.859 827.796L554.986 828.006L550.16 828.184L545.38 828.334L540.649 828.458L535.967 828.559L531.335 828.642L526.753 828.707L522.222 828.759L517.741 828.8L513.311 828.833L508.932 828.859L504.603 828.883L500.323 828.905L496.094 828.928L491.912 828.955L487.779 828.986L483.693 829.024L479.653 829.07L475.657 829.125L471.705 829.192L467.796 829.271L463.927 829.362L460.098 829.468L456.307 829.588L452.553 829.723L448.833 829.873L445.147 830.038L441.492 830.218L437.867 830.413L434.269 830.62L430.696 830.838L427.146 831.063L423.618 831.293L420.108 831.525L416.614 831.754L413.135 831.977L409.669 832.189L406.214 832.385L402.769 832.563L399.332 832.716L395.902 832.84L392.479 832.932L389.061 832.987L385.649 833L382.242 832.969L378.84 832.889L375.443 832.758L372.052 832.574L368.668 832.334L365.292 832.038L361.923 831.684L358.564 831.271L355.215 830.8L351.877 830.27L348.552 829.682L345.24 829.036L341.943 828.332L338.661 827.573L335.397 826.759L332.15 825.892L328.922 824.973L325.713 824.006L322.525 822.991L319.359 821.932L316.214 820.832L313.092 819.693L309.993 818.518L306.917 817.311L303.864 816.076L300.835 814.814L297.829 813.53L294.846 812.228L291.885 810.911L288.947 809.583L286.03 808.247L283.133 806.908L280.257 805.567L277.398 804.23L274.558 802.899L271.733 801.577L268.922 800.268L266.125 798.975L263.339 797.699L260.563 796.445L257.795 795.214L255.033 794.009L252.275 792.83L249.52 791.681L246.765 790.563L244.008 789.476L241.248 788.423L238.483 787.403L235.71 786.417L232.928 785.466L230.135 784.549L227.329 783.666L224.508 782.817L221.672 782.002L218.818 781.218L215.944 780.466L213.051 779.743L210.136 779.048L207.198 778.38L204.237 777.737L201.251 777.116L198.24 776.515L195.203 775.932L192.141 775.365L189.052 774.811L185.936 774.268L182.793 773.732L179.625 773.201L176.429 772.672L173.208 772.142L169.962 771.609L166.691 771.07L163.395 770.522L160.076 769.963L156.734 769.389L153.37 768.799L149.985 768.19L146.58 767.559L143.157 766.904L139.715 766.224L136.257 765.515L132.783 764.777L129.294 764.008L125.791 763.205L122.276 762.368L118.749 761.495L115.212 760.585L111.664 759.636L108.108 758.648L104.542 757.621L100.969 756.553L97.3893 755.444L93.8025 754.294L90.2097 753.102L86.6113 751.867L83.008 750.589L79.4003 749.268L75.7887 747.903L72.174 746.495L68.5567 745.041L64.9379 743.543L61.3185 741.998L57.6996 740.407L54.0824 738.769L50.4686 737.082L46.8599 735.346L43.2584 733.559L39.6664 731.72L36.0866 729.827L32.5215 727.88L28.9737 725.877L25.4456 723.817L21.9397 721.7L18.4581 719.524L15.0031 717.291L11.5769 714.998L8.18134 712.646L4.81836 710.235L1.48962 707.765L-1.80327 705.237L-5.0589 702.65L-8.27603 700.006L-11.4536 697.305L-14.5908 694.547L-17.6869 691.734L-20.7413 688.867L-23.7537 685.946L-26.7238 682.973L-29.6517 679.949L-32.5373 676.875L-35.381 673.752L-38.1832 670.581L-40.9445 667.364L-43.6655 664.101L-46.3471 660.795L-48.9902 657.446L-51.5961 654.056L-54.1658 650.625L-56.7008 647.155L-59.2025 643.646L-61.6724 640.101L-64.1122 636.519L-66.5237 632.902L-68.9085 629.25L-71.2685 625.565L-73.6057 621.847L-75.9218 618.096L-78.2189 614.313L-80.4988 610.498L-82.7634 606.652L-85.0145 602.774L-87.2541 598.866L-89.4838 594.926L-91.7053 590.955L-93.9202 586.953L-96.1299 582.918L-98.3358 578.852L-100.539 574.753L-102.741 570.621L-104.942 566.454L-107.143 562.254L-109.344 558.018L-111.547 553.745L-113.75 549.436L-115.954 545.089L-118.159 540.704L-120.364 536.278L-122.568 531.812L-124.77 527.305L-126.969 522.754L-129.164 518.161L-131.354 513.524L-133.535 508.842L-135.707 504.114L-137.866 499.34L-140.012 494.519L-142.14 489.651L-144.25 484.735L-146.336 479.771L-148.397 474.759L-150.43 469.699L-152.43 464.591L-154.395 459.435L-156.321 454.231L-158.204 448.98L-160.04 443.683L-161.826 438.34L-163.557 432.953L-165.232 427.521L-166.846 422.047L-168.399 416.53L-169.888 410.972L-171.312 405.374L-172.669 399.737L-173.959 394.062L-175.18 388.349L-176.333 382.599L-177.417 376.814L-178.431 370.993L-179.375 365.138L-180.249 359.249L-181.052 353.328L-181.784 347.375L-182.443 341.391L-183.031 335.377L-183.544 329.334L-183.983 323.263L-184.346 317.166L-184.631 311.043L-184.836 304.897L-184.96 298.729L-185 292.541L-184.954 286.335L-184.819 280.114L-184.594 273.879L-184.275 267.633L-183.861 261.38L-183.348 255.12L-182.734 248.858L-182.017 242.597L-181.193 236.339L-180.261 230.089L-179.217 223.85L-178.06 217.624L-176.786 211.417L-175.394 205.233L-173.881 199.074L-172.244 192.946L-170.483 186.853L-168.594 180.799L-166.576 174.788L-164.429 168.825L-162.149 162.914L-159.737 157.06L-157.191 151.268L-154.511 145.541L-151.696 139.884L-148.746 134.302L-145.661 128.799L-142.442 123.379L-139.089 118.047L-135.602 112.805L-131.984 107.659L-128.234 102.612L-124.356 97.6675L-120.35 92.8291L-116.218 88.1002L-111.963 83.4837L-107.588 78.9827L-103.094 74.5999L-98.4853 70.3378L-93.7644 66.1987L-88.9347 62.1846L-83.9996 58.2974L-78.9626 54.5388L-73.8276 50.9099L-68.5984 47.4121L-63.2789 44.046L-57.8733 40.8125L-52.3858 37.7117L-46.8206 34.744L-41.182 31.9091L-35.4746 29.2067L-29.7025 26.6362L-23.8705 24.1968L-17.9827 21.8875L-12.0437 19.707L-6.05792 17.6539L-0.0296783 15.7265L6.0367 13.923L12.137 12.2415L18.267 10.6798L24.4227 9.23572L30.6002 7.9069L36.7957 6.69094L43.0054 5.58538L49.2259 4.58775L55.4537 3.69555L61.6858 2.90626L67.9188 2.21735L74.1501 1.62633L80.3768 1.13071L86.5962 0.728048L92.8059 0.415946L99.0036 0.192069L105.187 0.0541512L111.354 0L117.503 0.0275053L123.633 0.134604L129.74 0.319L135.824 0.577979L141.882 0.908428L147.914 1.30688L153.916 1.76954L159.887 2.29232L165.826 2.87089L171.731 3.50067L177.6 4.17689L183.433 4.89461L189.228 5.64871L194.984 6.43396L200.701 7.24497L206.377 8.07628L212.013 8.92228L217.609 9.7773L223.163 10.6355L228.677 11.4911L234.151 12.338L239.585 13.1701L244.98 13.9812L250.338 14.7648L255.659 15.5144L260.945 16.2235L266.198 16.886L271.419 17.4964L276.612 18.0497L281.778 18.5414L286.921 18.9675L292.044 19.3249L297.148 19.6106L302.239 19.8227L307.319 19.9596L312.391 20.0203L317.458 20.0046L322.525 19.9127L327.595 19.7455L332.671 19.5045L337.756 19.1915L342.854 18.8091L347.967 18.3603L353.098 17.8488L358.251 17.2787L363.428 16.6545L368.631 15.9811L373.862 15.2641L379.123 14.5091L384.416 13.7225L389.742 12.9105L395.102 12.08L400.497 11.238L405.927 10.3915L411.392 9.54791L416.893 8.71471L422.429 7.89941L427.998 7.10956L433.6 6.35276L439.234 5.63654L444.898 4.96837L450.59 4.35564L456.307 3.80558L462.047 3.32525L467.808 2.92153L473.586 2.60108L479.379 2.37029L485.182 2.23528L490.993 2.20187L496.807 2.27557L502.621 2.46155L508.431 2.76463L514.233 3.18925L520.022 3.73948L525.794 4.41902L531.546 5.23114L537.272 6.17872L542.968 7.26425L548.63 8.48979L554.255 9.85701L559.837 11.3672L565.372 13.0211L570.857 14.8193L576.287 16.7617L581.66 18.8482L586.97 21.0779L592.215 23.4498L597.391 25.9626L602.495 28.6144L607.524 31.4032L612.476 34.3265L617.347 37.3818L622.136 40.5659L626.841 43.8758L631.459 47.3079L635.989 50.8588L640.429 54.5244L644.779 58.3009L649.037 62.1842L653.203 66.17L657.275 70.2541L661.255 74.432L665.141 78.6993L668.934 83.0516L672.634 87.4841L676.242 91.9917L679.759 96.5692L683.188 101.211L686.53 105.912L689.789 110.665L692.966 115.466L696.066 120.308L699.092 125.186L702.047 130.095L704.936 135.028L707.763 139.982L710.532 144.95L713.248 149.928L715.914 154.912L718.536 159.897L721.119 164.88L723.666 169.856L726.182 174.824L728.673 179.779L731.141 184.72L733.592 189.644L736.03 194.549L738.459 199.433L740.882 204.296L743.304 209.136L745.728 213.952L748.157 218.745L750.593 223.515L753.04 228.261L755.5 232.985L757.974 237.688L760.464 242.37L762.972 247.034L765.498 251.68L768.043 256.31L770.607 260.928L773.191 265.534L775.793 270.131L778.413 274.721L781.05 279.307L783.702 283.891L786.368 288.476L789.047 293.064L791.734 297.659L794.429 302.262L797.128 306.876L799.829 311.504L802.527 316.147L805.22 320.809L807.905 325.492L810.576 330.197L813.231 334.926L815.865 339.682L818.475 344.466L821.055 349.279L823.603 354.123L826.114 359L828.583 363.909L831.007 368.852L833.382 373.829L835.703 378.841L837.967 383.888L840.17 388.97L842.308 394.087L844.378 399.239L846.376 404.425L848.3 409.645L850.146 414.897L851.911 420.181L853.594 425.496L855.191 430.841L856.701 436.214L858.121 441.614L859.449 447.04L860.686 452.49L861.828 457.962L862.874 463.454L863.825 468.966L864.679 474.495L865.436 480.039L866.095 485.597L866.656 491.166L867.12 496.745L867.485 502.333L867.754 507.926L867.925 513.524Z" fill="#FFEBCC"/>
</svg>
