<svg width="751" height="594" viewBox="0 0 751 594" fill="none" xmlns="http://www.w3.org/2000/svg">
<path fill-rule="evenodd" clip-rule="evenodd" d="M750.946 366.186L751 370.18L750.985 374.174L750.903 378.167L750.754 382.158L750.539 386.147L750.258 390.131L749.913 394.109L749.504 398.082L749.032 402.046L748.498 406.003L747.903 409.949L747.248 413.885L746.534 417.81L745.761 421.723L744.931 425.622L744.043 429.507L743.098 433.377L742.097 437.232L741.039 441.069L739.923 444.888L738.749 448.687L737.517 452.467L736.225 456.224L734.873 459.958L733.458 463.668L731.982 467.351L730.442 471.007L728.836 474.633L727.165 478.228L725.426 481.789L723.62 485.316L721.744 488.806L719.799 492.258L717.783 495.668L715.696 499.037L713.539 502.36L711.31 505.638L709.01 508.867L706.64 512.047L704.2 515.174L701.69 518.249L699.111 521.268L696.465 524.231L693.751 527.136L690.972 529.981L688.128 532.765L685.221 535.486L682.252 538.143L679.222 540.736L676.134 543.262L672.989 545.721L669.789 548.112L666.536 550.434L663.232 552.687L659.879 554.868L656.479 556.979L653.036 559.019L649.55 560.987L646.026 562.884L642.464 564.709L638.868 566.462L635.24 568.143L631.583 569.753L627.9 571.292L624.193 572.761L620.465 574.16L616.718 575.49L612.956 576.751L609.181 577.946L605.395 579.075L601.601 580.138L597.803 581.138L594.001 582.076L590.2 582.954L586.402 583.772L582.608 584.533L578.822 585.238L575.046 585.89L571.282 586.49L567.532 587.04L563.798 587.543L560.083 588L556.388 588.414L552.715 588.787L549.066 589.121L545.443 589.418L541.847 589.681L538.279 589.913L534.741 590.115L531.234 590.289L527.758 590.439L524.316 590.566L520.908 590.673L517.533 590.761L514.194 590.833L510.891 590.892L507.623 590.939L504.391 590.976L501.195 591.005L498.036 591.028L494.912 591.047L491.825 591.064L488.773 591.08L485.756 591.097L482.774 591.115L479.826 591.138L476.912 591.164L474.03 591.197L471.181 591.237L468.362 591.285L465.574 591.341L462.815 591.406L460.084 591.481L457.381 591.567L454.703 591.663L452.05 591.77L449.421 591.888L446.814 592.016L444.229 592.155L441.663 592.303L439.115 592.458L436.583 592.619L434.066 592.783L431.563 592.948L429.072 593.111L426.59 593.27L424.118 593.421L421.654 593.562L419.197 593.688L416.746 593.797L414.3 593.886L411.858 593.952L409.421 593.99L406.987 594L404.557 593.978L402.131 593.921L399.708 593.828L397.29 593.696L394.877 593.525L392.468 593.314L390.066 593.061L387.67 592.767L385.281 592.431L382.901 592.053L380.529 591.634L378.167 591.173L375.816 590.672L373.475 590.13L371.147 589.55L368.831 588.931L366.529 588.276L364.241 587.586L361.967 586.863L359.709 586.108L357.466 585.323L355.24 584.511L353.029 583.673L350.835 582.813L348.658 581.931L346.498 581.032L344.354 580.116L342.226 579.188L340.115 578.249L338.019 577.302L335.939 576.349L333.873 575.394L331.821 574.438L329.783 573.484L327.757 572.535L325.742 571.593L323.738 570.659L321.743 569.737L319.756 568.828L317.776 567.933L315.802 567.055L313.832 566.196L311.865 565.356L309.9 564.536L307.935 563.739L305.969 562.964L304 562.213L302.028 561.485L300.05 560.782L298.066 560.104L296.074 559.45L294.073 558.821L292.061 558.216L290.038 557.634L288.003 557.075L285.954 556.539L283.89 556.023L281.811 555.528L279.716 555.051L277.604 554.593L275.474 554.15L273.327 553.721L271.161 553.306L268.977 552.902L266.774 552.506L264.552 552.119L262.31 551.737L260.05 551.358L257.772 550.981L255.474 550.603L253.159 550.223L250.826 549.839L248.475 549.448L246.108 549.049L243.725 548.64L241.326 548.219L238.912 547.785L236.483 547.335L234.042 546.868L231.587 546.383L229.121 545.878L226.643 545.352L224.155 544.803L221.657 544.23L219.15 543.633L216.634 543.011L214.111 542.362L211.581 541.685L209.044 540.981L206.502 540.248L203.954 539.487L201.4 538.696L198.842 537.876L196.28 537.026L193.713 536.145L191.143 535.234L188.57 534.292L185.995 533.319L183.417 532.314L180.837 531.278L178.256 530.209L175.674 529.108L173.093 527.973L170.514 526.805L167.936 525.602L165.363 524.364L162.794 523.09L160.232 521.778L157.679 520.429L155.136 519.04L152.606 517.612L150.09 516.143L147.589 514.633L145.106 513.082L142.642 511.489L140.199 509.854L137.777 508.177L135.379 506.458L133.004 504.697L130.656 502.894L128.334 501.049L126.04 499.164L123.773 497.238L121.536 495.271L119.328 493.265L117.149 491.221L115.001 489.138L112.883 487.018L110.794 484.861L108.736 482.669L106.708 480.442L104.71 478.181L102.74 475.887L100.8 473.561L98.8873 471.203L97.0022 468.815L95.1437 466.397L93.311 463.951L91.5031 461.476L89.7189 458.975L87.9573 456.446L86.2172 453.892L84.4974 451.313L82.7965 448.709L81.1133 446.081L79.4465 443.43L77.7946 440.755L76.1563 438.057L74.5303 435.337L72.9152 432.594L71.3097 429.829L69.7124 427.042L68.1222 424.233L66.5378 421.401L64.9582 418.547L63.3822 415.671L61.8089 412.771L60.2375 409.848L58.6673 406.901L57.0975 403.93L55.5277 400.935L53.9576 397.914L52.3869 394.868L50.8155 391.795L49.2434 388.695L47.671 385.568L46.0986 382.412L44.5267 379.227L42.956 376.013L41.3875 372.768L39.8219 369.493L38.2607 366.186L36.7049 362.847L35.1561 359.476L33.6157 356.072L32.0856 352.634L30.5675 349.163L29.0632 345.657L27.575 342.118L26.105 338.544L24.6554 334.936L23.2287 331.293L21.8273 327.616L20.4539 323.906L19.111 320.161L17.8014 316.384L16.5278 312.574L15.2929 308.732L14.0987 304.859L12.9472 300.955L11.8398 297.021L10.7779 293.058L9.76261 289.067L8.79465 285.047L7.87475 281L7.00344 276.926L6.18114 272.826L5.4082 268.7L4.68492 264.55L4.01155 260.374L3.38838 256.175L2.8157 251.953L2.29388 247.708L1.82334 243.441L1.40462 239.152L1.03839 234.843L0.725444 230.514L0.466748 226.166L0.263449 221.8L0.116888 217.417L0.0285516 213.019L0 208.607L0.0328492 204.181L0.12877 199.745L0.289481 195.299L0.516744 190.845L0.812355 186.386L1.17814 181.922L1.61594 177.457L2.12759 172.992L2.71496 168.53L3.37988 164.073L4.12416 159.624L4.9496 155.185L5.85797 150.759L6.85098 146.348L7.93026 141.957L9.09738 137.587L10.3538 133.242L11.7008 128.925L13.1397 124.638L14.6715 120.386L16.2973 116.172L18.0177 111.997L19.8334 107.867L21.7449 103.783L23.7525 99.7495L25.8563 95.769L28.0564 91.8449L30.3523 87.98L32.7439 84.1773L35.2304 80.4398L37.8112 76.7701L40.4853 73.1711L43.2515 69.6453L46.1087 66.1951L49.0554 62.8229L52.0899 59.531L55.2105 56.3214L58.4154 53.1961L61.7023 50.1569L65.0693 47.2053L68.5138 44.3429L72.0336 41.571L75.6259 38.8908L79.2882 36.3031L83.0177 33.8088L86.8115 31.4086L90.6668 29.1028L94.5805 26.8917L98.5496 24.7754L102.571 22.7539L106.642 20.8269L110.758 18.9939L114.918 17.2544L119.117 15.6077L123.353 14.0528L127.622 12.5887L131.921 11.2143L136.247 9.92831L140.598 8.72924L144.97 7.61562L149.36 6.58586L153.766 5.63829L158.185 4.77121L162.614 3.98285L167.05 3.27146L171.492 2.63524L175.936 2.07241L180.382 1.58116L184.826 1.15971L189.267 0.806294L193.703 0.519161L198.131 0.296605L202.551 0.136962L206.962 0.0386144L211.36 0L215.746 0.0196136L220.117 0.0959841L224.473 0.227474L228.812 0.412148L233.133 0.647787L237.434 0.931916L241.715 1.26183L245.974 1.63462L250.209 2.04719L254.421 2.49628L258.607 2.97848L262.767 3.49027L266.9 4.02801L271.005 4.58796L275.082 5.16628L279.13 5.75907L283.15 6.36235L287.141 6.97205L291.102 7.58405L295.035 8.19415L298.938 8.79806L302.814 9.39143L306.662 9.96978L310.483 10.5286L314.278 11.0631L318.048 11.5687L321.794 12.0411L325.518 12.4764L329.222 12.871L332.907 13.2216L336.574 13.5255L340.228 13.7803L343.868 13.9841L347.499 14.1353L351.122 14.2329L354.739 14.2762L358.354 14.265L361.967 14.1995L365.583 14.0803L369.203 13.9083L372.83 13.6851L376.465 13.4125L380.112 13.0925L383.772 12.7277L387.447 12.3212L391.139 11.876L394.85 11.3959L398.58 10.8846L402.333 10.3463L406.108 9.78529L409.906 9.2063L413.729 8.61409L417.576 8.01362L421.449 7.41001L425.347 6.80847L429.27 6.21433L433.218 5.63295L437.19 5.06972L441.186 4.53006L445.204 4.01933L449.244 3.54287L453.303 3.10594L457.38 2.7137L461.474 2.37119L465.583 2.0833L469.704 1.85479L473.835 1.69022L477.974 1.59394L482.118 1.57012L486.265 1.62268L490.412 1.7553L494.555 1.97142L498.693 2.27421L502.822 2.66657L506.939 3.15114L511.041 3.73025L515.124 4.40595L519.187 5.18003L523.226 6.05394L527.237 7.02889L531.218 8.10575L535.166 9.28515L539.078 10.5674L542.951 11.9525L546.782 13.4404L550.569 15.0303L554.31 16.7217L558.001 18.5135L561.642 20.4045L565.229 22.3931L568.76 24.4777L572.235 26.6564L575.65 28.927L579.005 31.2872L582.299 33.7346L585.53 36.2666L588.697 38.8806L591.799 41.5735L594.836 44.3426L597.807 47.1849L600.711 50.0972L603.549 53.0764L606.321 56.1193L609.026 59.2229L611.665 62.3836L614.238 65.5979L616.747 68.8621L619.192 72.1721L621.576 75.524L623.9 78.9137L626.166 82.337L628.377 85.79L630.535 89.2686L632.642 92.7688L634.703 96.2868L636.719 99.8189L638.694 103.362L640.63 106.911L642.532 110.465L644.402 114.02L646.244 117.573L648.061 121.122L649.856 124.664L651.632 128.198L653.392 131.721L655.14 135.232L656.879 138.73L658.611 142.213L660.34 145.68L662.067 149.132L663.796 152.566L665.528 155.984L667.266 159.385L669.011 162.77L670.765 166.138L672.529 169.492L674.306 172.831L676.094 176.156L677.896 179.469L679.711 182.771L681.539 186.064L683.382 189.348L685.238 192.626L687.106 195.899L688.987 199.169L690.879 202.438L692.78 205.708L694.69 208.98L696.607 212.256L698.529 215.538L700.454 218.829L702.38 222.129L704.305 225.44L706.226 228.764L708.14 232.103L710.045 235.458L711.939 238.831L713.817 242.222L715.678 245.634L717.519 249.066L719.336 252.52L721.127 255.997L722.888 259.498L724.617 263.023L726.31 266.572L727.966 270.146L729.581 273.745L731.152 277.369L732.677 281.018L734.153 284.692L735.578 288.39L736.95 292.112L738.266 295.857L739.526 299.625L740.726 303.415L741.865 307.226L742.941 311.058L743.954 314.909L744.902 318.778L745.783 322.664L746.598 326.566L747.344 330.482L748.023 334.413L748.632 338.355L749.171 342.309L749.641 346.272L750.042 350.243L750.372 354.222L750.633 358.206L750.824 362.195L750.946 366.186Z" fill="#CCE7FF"/>
</svg>
