<svg width="592" height="587" viewBox="0 0 592 587" fill="none" xmlns="http://www.w3.org/2000/svg">
<path fill-rule="evenodd" clip-rule="evenodd" d="M584.111 365.195L583.009 369.458L581.839 373.691L580.601 377.892L579.296 382.062L577.926 386.197L576.49 390.298L574.99 394.363L573.428 398.39L571.804 402.38L570.12 406.331L568.376 410.242L566.575 414.112L564.717 417.94L562.804 421.726L560.836 425.468L558.816 429.166L556.745 432.82L554.623 436.428L552.453 439.99L550.237 443.506L547.974 446.975L545.667 450.396L543.318 453.769L540.927 457.094L538.497 460.371L536.028 463.598L533.522 466.777L530.98 469.906L528.404 472.986L525.796 476.017L523.156 478.998L520.487 481.93L517.789 484.812L515.065 487.646L512.314 490.43L509.54 493.165L506.742 495.852L503.923 498.491L501.084 501.081L498.227 503.624L495.351 506.12L492.46 508.57L489.554 510.974L486.635 513.332L483.703 515.646L480.761 517.916L477.808 520.143L474.847 522.328L471.878 524.471L468.903 526.574L465.921 528.636L462.935 530.659L459.944 532.644L456.949 534.59L453.951 536.5L450.95 538.373L447.948 540.211L444.943 542.013L441.937 543.781L438.93 545.516L435.922 547.216L432.913 548.884L429.903 550.52L426.893 552.124L423.882 553.696L420.87 555.236L417.858 556.746L414.845 558.225L411.831 559.673L408.816 561.091L405.799 562.478L402.781 563.834L399.761 565.16L396.74 566.455L393.716 567.719L390.69 568.952L387.661 570.153L384.629 571.322L381.594 572.457L378.554 573.559L375.511 574.627L372.463 575.659L369.411 576.654L366.354 577.612L363.292 578.531L360.225 579.41L357.152 580.248L354.074 581.043L350.991 581.795L347.903 582.502L344.811 583.162L341.713 583.774L338.612 584.337L335.506 584.85L332.398 585.311L329.286 585.719L326.173 586.073L323.059 586.372L319.944 586.614L316.83 586.799L313.717 586.925L310.607 586.992L307.5 587L304.398 586.947L301.303 586.833L298.214 586.658L295.134 586.421L292.064 586.122L289.005 585.761L285.959 585.339L282.927 584.856L279.91 584.312L276.91 583.707L273.928 583.043L270.965 582.32L268.023 581.54L265.103 580.703L262.206 579.811L259.333 578.865L256.486 577.867L253.665 576.819L250.871 575.722L248.105 574.578L245.367 573.39L242.66 572.159L239.982 570.888L237.334 569.579L234.717 568.234L232.131 566.856L229.576 565.447L227.052 564.009L224.558 562.545L222.095 561.057L219.662 559.548L217.258 558.02L214.884 556.476L212.537 554.917L210.218 553.346L207.926 551.766L205.659 550.178L203.417 548.584L201.197 546.987L199 545.388L196.824 543.79L194.666 542.193L192.527 540.599L190.403 539.009L188.295 537.426L186.199 535.85L184.116 534.281L182.042 532.721L179.977 531.171L177.919 529.632L175.866 528.103L173.817 526.585L171.769 525.078L169.722 523.584L167.673 522.101L165.621 520.631L163.564 519.172L161.501 517.725L159.43 516.289L157.35 514.864L155.259 513.449L153.155 512.043L151.039 510.646L148.908 509.256L146.761 507.873L144.598 506.495L142.418 505.121L140.219 503.749L138.002 502.378L135.765 501.006L133.509 499.632L131.233 498.254L128.936 496.869L126.62 495.477L124.285 494.074L121.93 492.66L119.556 491.232L117.164 489.788L114.754 488.325L112.327 486.843L109.885 485.339L107.429 483.811L104.959 482.257L102.477 480.675L99.984 479.063L97.4825 477.419L94.9737 475.742L92.4592 474.03L89.9409 472.282L87.4204 470.495L84.8999 468.669L82.381 466.802L79.8658 464.892L77.3563 462.94L74.8543 460.943L72.3617 458.901L69.8807 456.813L67.413 454.678L64.9607 452.496L62.5259 450.266L60.1107 447.987L57.7171 445.66L55.3473 443.283L53.0034 440.857L50.6874 438.382L48.4016 435.856L46.148 433.282L43.9287 430.658L41.7458 427.984L39.6014 425.262L37.4974 422.491L35.4358 419.672L33.4186 416.805L31.4477 413.892L29.5249 410.932L27.6519 407.927L25.8305 404.877L24.0625 401.784L22.3492 398.648L20.6924 395.47L19.0934 392.252L17.5536 388.994L16.0744 385.698L14.6569 382.366L13.3023 378.997L12.0116 375.595L10.7858 372.159L9.62543 368.692L8.53121 365.195L7.50352 361.669L6.54265 358.115L5.64875 354.536L4.82187 350.932L4.06189 347.305L3.36864 343.657L2.7418 339.988L2.18099 336.299L1.68573 332.592L1.25545 328.869L0.889541 325.13L0.587314 321.376L0.348038 317.608L0.170936 313.828L0.0552014 310.035L0 306.232L0.0044819 302.418L0.0677879 298.595L0.189058 294.763L0.367436 290.923L0.602082 287.075L0.892173 283.22L1.23691 279.358L1.63554 275.489L2.08731 271.615L2.59156 267.736L3.14764 263.851L3.75496 259.961L4.41298 256.066L5.12123 252.167L5.87928 248.264L6.68679 244.357L7.54345 240.446L8.44904 236.531L9.40339 232.614L10.4064 228.693L11.4581 224.77L12.5584 220.844L13.7075 216.916L14.9055 212.986L16.1527 209.055L17.4493 205.122L18.7957 201.19L20.1923 197.257L21.6395 193.325L23.1378 189.394L24.6878 185.465L26.2901 181.539L27.9452 177.616L29.6538 173.697L31.4165 169.784L33.2342 165.877L35.1074 161.977L37.0369 158.086L39.0235 154.205L41.0678 150.334L43.1706 146.476L45.3326 142.631L47.5545 138.802L49.837 134.99L52.1806 131.196L54.5861 127.422L57.054 123.671L59.5848 119.942L62.1791 116.24L64.8373 112.565L67.5598 108.919L70.3469 105.305L73.1988 101.724L76.1159 98.1785L79.0982 94.6708L82.1459 91.2029L85.2588 87.777L88.4369 84.3951L91.68 81.0595L94.9878 77.7722L98.3598 74.5351L101.796 71.3501L105.294 68.2191L108.855 65.1438L112.478 62.126L116.161 59.1671L119.903 56.2687L123.704 53.4323L127.562 50.6593L131.477 47.9509L135.446 45.3083L139.469 42.7327L143.544 40.2252L147.671 37.7869L151.847 35.4186L156.071 33.1214L160.341 30.8959L164.657 28.7431L169.017 26.6637L173.42 24.6583L177.863 22.7277L182.345 20.8724L186.865 19.0931L191.422 17.3902L196.013 15.7643L200.638 14.2159L205.294 12.7454L209.981 11.3533L214.696 10.0399L219.438 8.80577L224.206 7.65113L228.999 6.57637L233.814 5.58184L238.65 4.66784L243.505 3.83467L248.379 3.08261L253.269 2.41192L258.174 1.82284L263.093 1.31559L268.023 0.890374L272.964 0.547364L277.914 0.286712L282.871 0.108543L287.834 0.0129507L292.801 0L297.771 0.0697233L302.742 0.222132L307.713 0.457222L312.682 0.774979L317.648 1.17537L322.609 1.65834L327.563 2.22384L332.509 2.87176L337.446 3.60202L342.372 4.41448L347.285 5.30899L352.184 6.28539L357.068 7.34348L361.934 8.48304L366.781 9.70383L371.608 11.0056L376.413 12.388L381.195 13.8507L385.952 15.3934L390.683 17.0157L395.385 18.7172L400.058 20.4974L404.701 22.3559L409.31 24.2922L413.886 26.3058L418.426 28.396L422.929 30.5623L427.394 32.8042L431.818 35.1209L436.201 37.5118L440.542 39.9762L444.838 42.5132L449.088 45.1218L453.291 47.8012L457.447 50.5502L461.553 53.3677L465.608 56.2524L469.612 59.2032L473.563 62.2188L477.461 65.2978L481.304 68.4389L485.092 71.6407L488.824 74.9018L492.499 78.2208L496.116 81.5963L499.675 85.0268L503.175 88.5111L506.615 92.0475L509.994 95.6349L513.313 99.2717L516.57 102.957L519.765 106.688L522.898 110.465L525.967 114.287L528.973 118.151L531.915 122.056L534.792 126.002L537.604 129.988L540.35 134.01L543.03 138.07L545.643 142.165L548.189 146.295L550.667 150.457L553.077 154.652L555.418 158.877L557.69 163.132L559.892 167.416L562.023 171.727L564.084 176.064L566.074 180.426L567.992 184.812L569.838 189.221L571.611 193.651L573.312 198.102L574.939 202.571L576.493 207.058L577.973 211.561L579.38 216.08L580.713 220.612L581.972 225.156L583.157 229.711L584.268 234.276L585.305 238.85L586.268 243.431L587.157 248.018L587.971 252.609L588.71 257.204L589.375 261.801L589.965 266.4L590.481 270.997L590.921 275.594L591.287 280.187L591.578 284.776L591.793 289.36L591.934 293.937L592 298.506L591.991 303.066L591.907 307.615L591.748 312.153L591.515 316.677L591.208 321.187L590.826 325.681L590.371 330.157L589.841 334.615L589.239 339.054L588.564 343.471L587.816 347.866L586.996 352.237L586.105 356.583L585.143 360.902L584.111 365.195Z" fill="#FFEBEB"/>
</svg>
