<svg width="633" height="645" viewBox="0 0 633 645" fill="none" xmlns="http://www.w3.org/2000/svg">
<path fill-rule="evenodd" clip-rule="evenodd" d="M632.955 397.626L633 401.963L632.988 406.3L632.918 410.636L632.793 414.97L632.611 419.301L632.375 423.627L632.083 427.947L631.739 432.26L631.341 436.565L630.891 440.861L630.39 445.147L629.838 449.421L629.236 453.683L628.584 457.931L627.884 462.165L627.136 466.384L626.34 470.587L625.496 474.772L624.604 478.938L623.663 483.085L622.674 487.211L621.635 491.315L620.546 495.395L619.406 499.45L618.215 503.478L616.97 507.477L615.672 511.447L614.319 515.384L612.91 519.287L611.444 523.155L609.922 526.985L608.341 530.774L606.701 534.522L605.002 538.226L603.243 541.883L601.425 545.492L599.546 549.051L597.608 552.558L595.61 556.01L593.553 559.406L591.438 562.745L589.264 566.024L587.034 569.241L584.747 572.395L582.404 575.484L580.007 578.507L577.557 581.462L575.054 584.348L572.5 587.163L569.897 589.906L567.247 592.576L564.549 595.172L561.807 597.694L559.022 600.139L556.196 602.509L553.331 604.801L550.428 607.016L547.49 609.153L544.52 611.212L541.517 613.194L538.487 615.097L535.429 616.923L532.347 618.671L529.242 620.342L526.117 621.937L522.975 623.456L519.817 624.9L516.646 626.271L513.464 627.568L510.273 628.793L507.075 629.948L503.874 631.034L500.67 632.053L497.466 633.005L494.264 633.894L491.067 634.72L487.875 635.486L484.693 636.194L481.52 636.845L478.359 637.443L475.212 637.988L472.081 638.485L468.966 638.934L465.871 639.339L462.795 639.702L459.741 640.025L456.71 640.311L453.703 640.562L450.72 640.781L447.764 640.971L444.835 641.133L441.934 641.271L439.061 641.387L436.217 641.483L433.402 641.562L430.617 641.625L427.863 641.676L425.139 641.716L422.446 641.748L419.782 641.773L417.15 641.794L414.547 641.812L411.975 641.829L409.432 641.847L406.919 641.868L404.434 641.892L401.978 641.921L399.549 641.957L397.147 642L394.772 642.052L392.421 642.112L390.096 642.183L387.794 642.265L385.515 642.358L383.258 642.462L381.022 642.578L378.806 642.706L376.609 642.846L374.43 642.997L372.267 643.157L370.119 643.326L367.986 643.5L365.864 643.678L363.754 643.858L361.654 644.035L359.563 644.208L357.479 644.372L355.402 644.524L353.331 644.661L351.265 644.78L349.203 644.876L347.145 644.947L345.091 644.99L343.04 645L340.991 644.976L338.946 644.914L336.905 644.813L334.866 644.67L332.832 644.485L330.802 644.255L328.777 643.981L326.758 643.661L324.745 643.297L322.738 642.886L320.739 642.431L318.748 641.93L316.766 641.386L314.794 640.798L312.831 640.167L310.879 639.496L308.939 638.785L307.01 638.036L305.094 637.25L303.19 636.43L301.3 635.578L299.423 634.696L297.56 633.787L295.711 632.852L293.876 631.895L292.055 630.918L290.248 629.924L288.454 628.916L286.675 627.897L284.908 626.868L283.155 625.834L281.414 624.796L279.684 623.759L277.966 622.723L276.258 621.692L274.56 620.669L272.871 619.655L271.189 618.654L269.515 617.666L267.846 616.695L266.182 615.742L264.521 614.809L262.864 613.896L261.207 613.007L259.551 612.141L257.894 611.299L256.235 610.483L254.572 609.694L252.905 608.93L251.233 608.194L249.554 607.484L247.867 606.8L246.172 606.143L244.466 605.511L242.751 604.905L241.024 604.322L239.284 603.762L237.532 603.225L235.766 602.707L233.986 602.209L232.191 601.728L230.381 601.263L228.555 600.812L226.714 600.373L224.857 599.944L222.984 599.523L221.095 599.108L219.19 598.697L217.27 598.287L215.333 597.877L213.382 597.465L211.415 597.047L209.434 596.623L207.439 596.19L205.43 595.746L203.408 595.289L201.373 594.817L199.326 594.328L197.268 593.821L195.199 593.294L193.12 592.746L191.032 592.175L188.935 591.579L186.829 590.957L184.716 590.309L182.596 589.633L180.469 588.928L178.337 588.194L176.199 587.429L174.055 586.633L171.908 585.807L169.755 584.948L167.599 584.057L165.439 583.134L163.276 582.178L161.11 581.188L158.941 580.165L156.77 579.109L154.597 578.018L152.423 576.893L150.248 575.732L148.072 574.536L145.896 573.304L143.722 572.036L141.549 570.73L139.38 569.385L137.215 568.002L135.056 566.578L132.904 565.112L130.761 563.604L128.628 562.053L126.507 560.459L124.4 558.819L122.307 557.135L120.23 555.405L118.17 553.63L116.129 551.809L114.107 549.942L112.106 548.029L110.127 546.072L108.17 544.069L106.236 542.021L104.326 539.93L102.44 537.794L100.579 535.616L98.7424 533.396L96.9315 531.135L95.1461 528.833L93.386 526.491L91.6514 524.111L89.9419 521.692L88.2574 519.237L86.5975 516.746L84.9618 514.22L83.3498 511.66L81.7609 509.067L80.1944 506.442L78.6496 503.785L77.1257 501.098L75.6219 498.382L74.1371 495.636L72.6704 492.863L71.2208 490.062L69.7872 487.235L68.3685 484.381L66.9635 481.502L65.5712 478.597L64.1904 475.668L62.8198 472.714L61.4585 469.736L60.1052 466.734L58.7589 463.708L57.4186 460.657L56.0831 457.582L54.7517 454.483L53.4233 451.359L52.0973 448.211L50.7728 445.037L49.4492 441.837L48.1261 438.611L46.803 435.359L45.4796 432.079L44.1556 428.771L42.8311 425.434L41.5061 422.068L40.1808 418.672L38.8554 415.245L37.5305 411.787L36.2066 408.297L34.8845 404.774L33.565 401.217L32.249 397.626L30.9377 394.001L29.6322 390.34L28.3339 386.644L27.0442 382.911L25.7646 379.141L24.4967 375.335L23.2423 371.491L22.0033 367.611L20.7814 363.693L19.5789 359.737L18.3977 355.745L17.2401 351.716L16.1082 347.65L15.0044 343.548L13.9309 339.411L12.89 335.24L11.8835 331.034L10.9128 326.795L9.97949 322.523L9.08447 318.22L8.22867 313.885L7.4128 309.521L6.63744 305.126L5.90303 300.702L5.20994 296.25L4.55845 291.77L3.9488 287.263L3.38124 282.73L2.85598 278.17L2.37329 273.585L1.93345 268.976L1.53685 264.342L1.18392 259.686L0.875235 255.007L0.61146 250.306L0.393411 245.585L0.222055 240.844L0.0985217 236.085L0.0240655 231.309L0 226.517L0.0276878 221.712L0.108537 216.895L0.243996 212.067L0.435551 207.231L0.684715 202.389L0.993025 197.542L1.36203 192.693L1.7933 187.845L2.28838 183L2.84882 178.16L3.47616 173.329L4.1719 168.509L4.93754 163.703L5.77453 158.914L6.68423 154.145L7.66796 149.4L8.72696 144.682L9.86234 139.994L11.0751 135.34L12.3663 130.723L13.7366 126.146L15.1867 121.613L16.7171 117.128L18.3282 112.694L20.0204 108.314L21.7937 103.992L23.648 99.7305L25.5833 95.5338L27.599 91.4047L29.6949 87.3462L31.8702 83.3615L34.1241 79.4535L36.4557 75.6249L38.8639 71.8785L41.3476 68.2168L43.9053 64.6423L46.5356 61.1571L49.2369 57.7635L52.0074 54.4633L54.8453 51.2583L57.7487 48.1502L60.7154 45.1403L63.7433 42.2299L66.8301 39.42L69.9736 36.7116L73.1714 34.1053L76.4209 31.6015L79.7197 29.2006L83.0651 26.9026L86.4547 24.7075L89.8857 22.615L93.3554 20.6247L96.8614 18.7358L100.401 16.9477L103.971 15.2593L107.569 13.6696L111.193 12.1772L114.84 10.7807L118.507 9.47872L122.192 8.26948L125.892 7.15131L129.606 6.12239L133.33 5.18086L137.063 4.32482L140.802 3.55234L144.546 2.8615L148.293 2.25034L152.04 1.71692L155.785 1.25928L159.528 0.875521L163.267 0.563735L167 0.322071L170.726 0.148721L174.443 0.0419298L178.15 0L181.847 0.0212976L185.531 0.104225L189.203 0.247005L192.86 0.447535L196.502 0.703405L200.128 1.01193L203.736 1.37017L207.325 1.77497L210.895 2.22296L214.445 2.7106L217.973 3.23421L221.48 3.78994L224.963 4.37385L228.424 4.98187L231.86 5.60985L235.272 6.25354L238.66 6.90861L242.024 7.57066L245.363 8.2352L248.678 8.89768L251.968 9.55345L255.235 10.1978L258.478 10.8258L261.699 11.4325L264.897 12.0129L268.075 12.562L271.233 13.075L274.372 13.5476L277.493 13.976L280.599 14.3568L283.691 14.6867L286.77 14.9634L289.839 15.1847L292.899 15.3489L295.952 15.4549L299.001 15.5019L302.048 15.4898L305.094 15.4186L308.141 15.2892L311.193 15.1025L314.249 14.8601L317.314 14.564L320.387 14.2166L323.472 13.8205L326.57 13.3791L329.682 12.8957L332.809 12.3743L335.954 11.8191L339.117 11.2346L342.298 10.6254L345.5 9.99674L348.722 9.35368L351.965 8.70166L355.229 8.04622L358.515 7.39304L361.822 6.74788L365.149 6.11659L368.497 5.505L371.865 4.919L375.252 4.36443L378.657 3.84706L382.078 3.37261L385.515 2.94669L388.966 2.57477L392.429 2.26217L395.902 2.01404L399.384 1.83534L402.873 1.7308L406.366 1.70493L409.861 1.762L413.356 1.906L416.849 2.14068L420.337 2.46947L423.817 2.89552L427.287 3.42169L430.744 4.05052L434.186 4.78424L437.61 5.62478L441.014 6.57373L444.395 7.63238L447.751 8.8017L451.078 10.0824L454.376 11.4747L457.64 12.9788L460.869 14.5943L464.062 16.3208L467.215 18.1574L470.326 20.1031L473.394 22.1564L476.418 24.3158L479.394 26.5794L482.323 28.9451L485.202 31.4106L488.03 33.9735L490.806 36.631L493.529 39.3804L496.198 42.2188L498.813 45.143L501.373 48.1498L503.877 51.2361L506.325 54.3984L508.717 57.6334L511.053 60.9377L513.333 64.3077L515.558 67.7398L517.727 71.2301L519.841 74.7745L521.902 78.3687L523.911 82.0084L525.87 85.6891L527.78 89.4064L529.644 93.1558L531.463 96.9331L533.239 100.734L534.976 104.554L536.675 108.389L538.34 112.236L539.972 116.091L541.575 119.95L543.151 123.81L544.704 127.668L546.235 131.521L547.748 135.368L549.245 139.205L550.729 143.031L552.202 146.843L553.668 150.641L555.128 154.423L556.585 158.188L558.041 161.936L559.498 165.665L560.958 169.377L562.422 173.07L563.893 176.745L565.372 180.403L566.859 184.044L568.356 187.67L569.864 191.281L571.382 194.878L572.912 198.464L574.453 202.039L576.006 205.605L577.57 209.165L579.146 212.719L580.731 216.27L582.325 219.819L583.928 223.37L585.538 226.923L587.154 230.48L588.774 234.044L590.396 237.617L592.02 241.2L593.642 244.796L595.261 248.406L596.874 252.031L598.48 255.674L600.076 259.337L601.66 263.019L603.228 266.723L604.78 270.45L606.311 274.201L607.821 277.977L609.305 281.778L610.762 285.606L612.19 289.46L613.585 293.34L614.946 297.248L616.27 301.184L617.556 305.146L618.8 309.135L620.001 313.15L621.157 317.192L622.267 321.259L623.328 325.35L624.34 329.466L625.3 333.604L626.207 337.765L627.061 341.946L627.86 346.147L628.603 350.367L629.289 354.604L629.919 358.857L630.49 363.125L631.004 367.406L631.459 371.699L631.855 376.002L632.192 380.315L632.471 384.635L632.691 388.961L632.852 393.292L632.955 397.626Z" fill="#FFB045"/>
</svg>
