<svg width="637" height="624" viewBox="0 0 637 624" fill="none" xmlns="http://www.w3.org/2000/svg">
<path fill-rule="evenodd" clip-rule="evenodd" d="M768.979 214.044L770.704 218.933L772.308 223.86L773.79 228.823L775.149 233.82L776.385 238.847L777.498 243.903L778.487 248.983L779.353 254.087L780.095 259.211L780.714 264.353L781.212 269.51L781.588 274.68L781.844 279.861L781.981 285.05L782 290.245L781.902 295.444L781.69 300.645L781.363 305.846L780.925 311.045L780.377 316.24L779.72 321.43L778.956 326.613L778.088 331.787L777.117 336.951L776.045 342.104L774.874 347.244L773.606 352.37L772.243 357.481L770.786 362.576L769.238 367.653L767.6 372.712L765.875 377.753L764.062 382.773L762.165 387.772L760.185 392.75L758.122 397.705L755.979 402.638L753.757 407.546L751.457 412.43L749.079 417.288L746.625 422.12L744.096 426.925L741.492 431.702L738.815 436.451L736.063 441.17L733.238 445.857L730.341 450.514L727.371 455.137L724.329 459.726L721.214 464.28L718.028 468.797L714.77 473.276L711.44 477.717L708.039 482.117L704.567 486.475L701.023 490.789L697.409 495.06L693.725 499.284L689.97 503.46L686.145 507.587L682.25 511.664L678.287 515.688L674.254 519.658L670.153 523.573L665.984 527.431L661.747 531.23L657.444 534.969L653.075 538.647L648.641 542.261L644.142 545.81L639.58 549.292L634.955 552.707L630.269 556.052L625.522 559.327L620.716 562.529L615.852 565.658L610.931 568.713L605.954 571.691L600.924 574.592L595.842 577.414L590.708 580.158L585.525 582.821L580.295 585.403L575.018 587.903L569.698 590.321L564.335 592.655L558.931 594.905L553.489 597.071L548.01 599.152L542.496 601.148L536.949 603.058L531.372 604.883L525.765 606.622L520.131 608.276L514.471 609.844L508.789 611.326L503.086 612.724L497.363 614.036L491.623 615.264L485.867 616.408L480.098 617.468L474.317 618.445L468.526 619.341L462.727 620.154L456.922 620.887L451.112 621.54L445.299 622.114L439.485 622.61L433.671 623.028L427.858 623.371L422.049 623.638L416.244 623.831L410.445 623.952L404.654 624L398.87 623.978L393.097 623.886L387.334 623.726L381.583 623.498L375.844 623.205L370.12 622.846L364.41 622.424L358.715 621.939L353.037 621.393L347.376 620.786L341.733 620.12L336.107 619.396L330.501 618.615L324.914 617.777L319.348 616.885L313.801 615.938L308.276 614.938L302.771 613.886L297.288 612.783L291.827 611.629L286.388 610.424L280.972 609.171L275.578 607.869L270.208 606.518L264.86 605.119L259.536 603.673L254.236 602.18L248.96 600.64L243.709 599.054L238.482 597.42L233.28 595.741L228.104 594.014L222.953 592.242L217.829 590.422L212.731 588.556L207.661 586.643L202.618 584.683L197.604 582.675L192.618 580.619L187.663 578.516L182.737 576.364L177.843 574.163L172.981 571.913L168.151 569.613L163.356 567.263L158.595 564.862L153.871 562.41L149.183 559.907L144.534 557.352L139.924 554.745L135.355 552.085L130.829 549.371L126.346 546.603L121.908 543.781L117.518 540.904L113.177 537.971L108.886 534.983L104.648 531.938L100.464 528.836L96.3367 525.678L92.2678 522.462L88.2595 519.189L84.3138 515.858L80.433 512.469L76.6192 509.023L72.8746 505.52L69.2014 501.959L65.6019 498.341L62.0783 494.667L58.6328 490.937L55.2675 487.151L51.9847 483.31L48.7865 479.416L45.675 475.468L42.6523 471.468L39.7205 467.418L36.8813 463.317L34.1369 459.168L31.489 454.972L28.9393 450.731L26.4896 446.445L24.1414 442.118L21.8963 437.75L19.7556 433.343L17.7207 428.9L15.7928 424.421L13.9729 419.911L12.2621 415.37L10.6613 410.8L9.17124 406.205L7.7925 401.586L6.52566 396.945L5.3711 392.286L4.32911 387.611L3.39984 382.921L2.58334 378.22L1.8795 373.51L1.28812 368.794L0.80882 364.074L0.441108 359.353L0.184309 354.632L0.0376001 349.916L0 345.206L0.0703724 340.505L0.247427 335.816L0.529723 331.141L0.915669 326.482L1.40353 321.842L1.99142 317.224L2.67733 312.629L3.45911 308.06L4.33449 303.52L5.30105 299.009L6.35628 294.531L7.49756 290.088L8.72217 285.68L10.0273 281.311L11.4099 276.981L12.8672 272.692L14.396 268.446L15.9932 264.245L17.6556 260.088L19.3801 255.979L21.1632 251.916L23.0018 247.902L24.8925 243.937L26.8321 240.023L28.8171 236.158L30.8443 232.344L32.9105 228.582L35.0123 224.871L37.1465 221.211L39.3101 217.602L41.4999 214.044L43.713 210.538L45.9466 207.082L48.1977 203.675L50.4638 200.319L52.7423 197.011L55.0307 193.751L57.3266 190.538L59.6278 187.371L61.9322 184.25L64.2378 181.174L66.5428 178.14L68.8454 175.149L71.144 172.199L73.4372 169.289L75.7236 166.417L78.0021 163.583L80.2716 160.785L82.5312 158.022L84.7801 155.292L87.0177 152.595L89.2434 149.929L91.4568 147.293L93.6577 144.686L95.846 142.106L98.0215 139.553L100.184 137.025L102.335 134.521L104.473 132.04L106.6 129.581L108.715 127.143L110.82 124.726L112.915 122.328L115 119.949L117.077 117.587L119.146 115.243L121.208 112.916L123.264 110.604L125.315 108.308L127.362 106.028L129.406 103.762L131.449 101.51L133.49 99.2727L135.531 97.0492L137.573 94.8394L139.618 92.6431L141.665 90.4602L143.716 88.2907L145.772 86.1344L147.834 83.9915L149.902 81.862L151.979 79.7461L154.064 77.644L156.159 75.5561L158.265 73.4827L160.383 71.4243L162.514 69.3814L164.659 67.3545L166.818 65.3443L168.994 63.3514L171.187 61.3765L173.397 59.4205L175.625 57.4841L177.873 55.5682L180.141 53.6736L182.43 51.8012L184.74 49.952L187.071 48.1268L189.425 46.3266L191.802 44.5522L194.201 42.8048L196.624 41.085L199.07 39.3939L201.539 37.7322L204.032 36.1009L206.548 34.5006L209.087 32.9322L211.65 31.3963L214.235 29.8935L216.842 28.4245L219.471 26.9896L222.122 25.5896L224.794 24.2248L227.486 22.8959L230.199 21.6033L232.931 20.3477L235.682 19.1295L238.452 17.9492L241.239 16.8073L244.044 15.7041L246.866 14.6402L249.704 13.6157L252.557 12.631L255.424 11.6863L258.305 10.7817L261.199 9.91727L264.106 9.09306L267.023 8.30898L269.951 7.56487L272.889 6.8605L275.836 6.19554L278.79 5.56961L281.752 4.98222L284.719 4.43281L287.693 3.92073L290.67 3.44527L293.652 3.00563L296.637 2.60095L299.624 2.23032L302.613 1.89273L305.603 1.58716L308.593 1.31251L311.584 1.06767L314.574 0.851468L317.563 0.662738L320.552 0.500283L323.538 0.362904L326.524 0.24941L329.508 0.15862L332.49 0.0893803L335.47 0.0405711L338.449 0.0111176L341.426 0L344.401 0.00626382L347.376 0.0290301L350.35 0.0675049L353.323 0.120989L356.296 0.188888L359.269 0.270718L362.243 0.366118L365.218 0.474825L368.194 0.596616L371.173 0.731296L374.153 0.878701L377.136 1.0387L380.123 1.21118L383.113 1.39609L386.108 1.59339L389.107 1.80309L392.112 2.02523L395.122 2.25989L398.138 2.50718L401.161 2.76728L404.191 3.04037L407.228 3.32669L410.274 3.6265L413.328 3.94013L416.39 4.2679L419.462 4.61021L422.544 4.96747L425.635 5.34012L428.737 5.72863L431.849 6.13353L434.972 6.55533L438.107 6.9946L441.252 7.45193L444.41 7.9279L447.579 8.42315L450.76 8.93831L453.954 9.47404L457.159 10.031L460.377 10.6099L463.607 11.2113L466.85 11.836L470.106 12.4844L473.374 13.1572L476.655 13.8547L479.949 14.5773L483.256 15.3253L486.578 16.0991L489.912 16.8989L493.262 17.7248L496.626 18.5771L500.005 19.456L503.399 20.3616L506.81 21.294L510.238 22.2534L513.682 23.2401L517.145 24.2541L520.626 25.2957L524.126 26.365L527.646 27.4625L531.187 28.5883L534.748 29.7429L538.332 30.9265L541.937 32.1398L545.566 33.3831L549.219 34.6571L552.895 35.9624L556.596 37.2997L560.323 38.6698L564.075 40.0735L567.852 41.5117L571.656 42.9855L575.486 44.4959L579.342 46.044L583.224 47.631L587.132 49.2582L591.065 50.927L595.023 52.6387L599.006 54.3949L603.012 56.197L607.041 58.0465L611.092 59.9452L615.162 61.8946L619.251 63.8964L623.357 65.9523L627.479 68.0641L631.613 70.2335L635.758 72.4621L639.911 74.7518L644.069 77.1041L648.23 79.5207L652.39 82.0034L656.547 84.5534L660.696 87.1724L664.834 89.8615L668.958 92.622L673.064 95.455L677.148 98.3614L681.207 101.342L685.236 104.398L689.233 107.529L693.192 110.736L697.109 114.02L700.982 117.38L704.806 120.816L708.576 124.329L712.289 127.918L715.941 131.583L719.528 135.323L723.047 139.137L726.492 143.025L729.861 146.985L733.15 151.017L736.355 155.119L739.473 159.29L742.5 163.528L745.434 167.832L748.27 172.2L751.006 176.63L753.64 181.119L756.167 185.667L758.586 190.271L760.895 194.928L763.09 199.636L765.171 204.394L767.134 209.197L768.979 214.044Z" fill="#FFEBCC"/>
</svg>
