<svg width="586" height="624" viewBox="0 0 586 624" fill="none" xmlns="http://www.w3.org/2000/svg">
<path fill-rule="evenodd" clip-rule="evenodd" d="M572.979 214.044L574.704 218.933L576.308 223.86L577.79 228.823L579.149 233.82L580.385 238.847L581.498 243.903L582.487 248.983L583.353 254.087L584.095 259.211L584.714 264.353L585.212 269.51L585.588 274.68L585.844 279.861L585.981 285.05L586 290.245L585.902 295.444L585.69 300.645L585.363 305.846L584.925 311.045L584.377 316.24L583.72 321.43L582.956 326.613L582.088 331.787L581.117 336.951L580.045 342.104L578.874 347.244L577.606 352.37L576.243 357.481L574.786 362.576L573.238 367.653L571.6 372.712L569.875 377.753L568.062 382.773L566.165 387.772L564.185 392.75L562.122 397.705L559.979 402.638L557.757 407.546L555.457 412.43L553.079 417.288L550.625 422.12L548.096 426.925L545.492 431.702L542.815 436.451L540.063 441.17L537.238 445.857L534.341 450.514L531.371 455.137L528.329 459.726L525.214 464.28L522.028 468.797L518.77 473.276L515.44 477.717L512.039 482.117L508.567 486.475L505.023 490.789L501.409 495.06L497.725 499.284L493.97 503.46L490.145 507.587L486.25 511.664L482.287 515.688L478.254 519.658L474.153 523.573L469.984 527.431L465.747 531.23L461.444 534.969L457.075 538.647L452.641 542.261L448.142 545.81L443.58 549.292L438.955 552.707L434.269 556.052L429.522 559.327L424.716 562.529L419.852 565.658L414.931 568.713L409.954 571.691L404.924 574.592L399.842 577.414L394.708 580.158L389.525 582.821L384.295 585.403L379.018 587.903L373.698 590.321L368.335 592.655L362.931 594.905L357.489 597.071L352.01 599.152L346.496 601.148L340.949 603.058L335.372 604.883L329.765 606.622L324.131 608.276L318.471 609.844L312.789 611.326L307.086 612.724L301.363 614.036L295.623 615.264L289.867 616.408L284.098 617.468L278.317 618.445L272.526 619.341L266.727 620.154L260.922 620.887L255.112 621.54L249.299 622.114L243.485 622.61L237.671 623.028L231.858 623.371L226.049 623.638L220.244 623.831L214.445 623.952L208.654 624L202.87 623.978L197.097 623.886L191.334 623.726L185.583 623.498L179.844 623.205L174.12 622.846L168.41 622.424L162.715 621.939L157.037 621.393L151.376 620.786L145.733 620.12L140.107 619.396L134.501 618.615L128.914 617.777L123.348 616.885L117.801 615.938L112.276 614.938L106.771 613.886L101.288 612.783L95.8271 611.629L90.3883 610.424L84.9719 609.171L79.5782 607.869L74.2076 606.518L68.8602 605.119L63.5364 603.673L58.2364 602.18L52.9605 600.64L47.7089 599.054L42.4821 597.42L37.2804 595.741L32.104 594.014L26.9535 592.242L21.8291 590.422L16.7315 588.556L11.661 586.643L6.6183 584.683L1.6039 582.675L-3.38156 580.619L-8.33737 578.516L-13.2628 576.364L-18.1571 574.163L-23.0193 571.913L-27.8486 569.613L-32.6441 567.263L-37.4047 564.862L-42.1293 562.41L-46.8169 559.907L-51.4662 557.352L-56.076 554.745L-60.6449 552.085L-65.1715 549.371L-69.6542 546.603L-74.0915 543.781L-78.4818 540.904L-82.8232 537.971L-87.1139 534.983L-91.3521 531.938L-95.536 528.836L-99.6633 525.678L-103.732 522.462L-107.741 519.189L-111.686 515.858L-115.567 512.469L-119.381 509.023L-123.125 505.52L-126.799 501.959L-130.398 498.341L-133.922 494.667L-137.367 490.937L-140.732 487.151L-144.015 483.31L-147.213 479.416L-150.325 475.468L-153.348 471.468L-156.28 467.418L-159.119 463.317L-161.863 459.168L-164.511 454.972L-167.061 450.731L-169.51 446.445L-171.859 442.118L-174.104 437.75L-176.244 433.343L-178.279 428.9L-180.207 424.421L-182.027 419.911L-183.738 415.37L-185.339 410.8L-186.829 406.205L-188.207 401.586L-189.474 396.945L-190.629 392.286L-191.671 387.611L-192.6 382.921L-193.417 378.22L-194.12 373.51L-194.712 368.794L-195.191 364.074L-195.559 359.353L-195.816 354.632L-195.962 349.916L-196 345.206L-195.93 340.505L-195.753 335.816L-195.47 331.141L-195.084 326.482L-194.596 321.842L-194.009 317.224L-193.323 312.629L-192.541 308.06L-191.666 303.52L-190.699 299.009L-189.644 294.531L-188.502 290.088L-187.278 285.68L-185.973 281.311L-184.59 276.981L-183.133 272.692L-181.604 268.446L-180.007 264.245L-178.344 260.088L-176.62 255.979L-174.837 251.916L-172.998 247.902L-171.107 243.937L-169.168 240.023L-167.183 236.158L-165.156 232.344L-163.09 228.582L-160.988 224.871L-158.853 221.211L-156.69 217.602L-154.5 214.044L-152.287 210.538L-150.053 207.082L-147.802 203.675L-145.536 200.319L-143.258 197.011L-140.969 193.751L-138.673 190.538L-136.372 187.371L-134.068 184.25L-131.762 181.174L-129.457 178.14L-127.155 175.149L-124.856 172.199L-122.563 169.289L-120.276 166.417L-117.998 163.583L-115.728 160.785L-113.469 158.022L-111.22 155.292L-108.982 152.595L-106.757 149.929L-104.543 147.293L-102.342 144.686L-100.154 142.106L-97.9785 139.553L-95.8155 137.025L-93.665 134.521L-91.5267 132.04L-89.4 129.581L-87.2847 127.143L-85.18 124.726L-83.0854 122.328L-81.0001 119.949L-78.9234 117.587L-76.8545 115.243L-74.7924 112.916L-72.7362 110.604L-70.685 108.308L-68.6378 106.028L-66.5936 103.762L-64.5514 101.51L-62.5101 99.2727L-60.4689 97.0492L-58.4266 94.8394L-56.3823 92.6431L-54.3351 90.4602L-52.284 88.2907L-50.228 86.1344L-48.1663 83.9915L-46.0977 81.862L-44.0214 79.7461L-41.9362 77.644L-39.8411 75.5561L-37.7351 73.4827L-35.6172 71.4243L-33.4863 69.3814L-31.3414 67.3545L-29.1816 65.3443L-27.0059 63.3514L-24.8134 61.3765L-22.6033 59.4205L-20.3746 57.4841L-18.1267 55.5682L-15.8588 53.6736L-13.5702 51.8012L-11.2603 49.952L-8.92874 48.1268L-6.57487 46.3266L-4.19839 44.5522L-1.79897 42.8048L0.623672 41.085L3.06963 39.3939L5.53902 37.7322L8.03183 36.1009L10.548 34.5006L13.0874 32.9322L15.6498 31.3963L18.2348 29.8935L20.8422 28.4245L23.4715 26.9896L26.1223 25.5896L28.794 24.2248L31.4864 22.8959L34.1989 21.6033L36.931 20.3477L39.6821 19.1295L42.4518 17.9492L45.2395 16.8073L48.0444 15.7041L50.866 14.6402L53.7036 13.6157L56.5565 12.631L59.4239 11.6863L62.3051 10.7817L65.1993 9.91727L68.1056 9.09306L71.0233 8.30898L73.9514 7.56487L76.8892 6.8605L79.8357 6.19554L82.7902 5.56961L85.7517 4.98222L88.7195 4.43281L91.6926 3.92073L94.6704 3.44527L97.652 3.00563L100.637 2.60095L103.624 2.23032L106.613 1.89273L109.603 1.58716L112.593 1.31251L115.584 1.06767L118.574 0.851468L121.563 0.662738L124.552 0.500283L127.538 0.362904L130.524 0.24941L133.508 0.15862L136.49 0.0893803L139.47 0.0405711L142.449 0.0111176L145.426 0L148.401 0.00626382L151.376 0.0290301L154.35 0.0675049L157.323 0.120989L160.296 0.188888L163.269 0.270718L166.243 0.366118L169.218 0.474825L172.194 0.596616L175.173 0.731296L178.153 0.878701L181.136 1.0387L184.123 1.21118L187.113 1.39609L190.108 1.59339L193.107 1.80309L196.112 2.02523L199.122 2.25989L202.138 2.50718L205.161 2.76728L208.191 3.04037L211.228 3.32669L214.274 3.6265L217.328 3.94013L220.39 4.2679L223.462 4.61021L226.544 4.96747L229.635 5.34012L232.737 5.72863L235.849 6.13353L238.972 6.55533L242.107 6.9946L245.252 7.45193L248.41 7.9279L251.579 8.42315L254.76 8.93831L257.954 9.47404L261.159 10.031L264.377 10.6099L267.607 11.2113L270.85 11.836L274.106 12.4844L277.374 13.1572L280.655 13.8547L283.949 14.5773L287.256 15.3253L290.578 16.0991L293.912 16.8989L297.262 17.7248L300.626 18.5771L304.005 19.456L307.399 20.3616L310.81 21.294L314.238 22.2534L317.682 23.2401L321.145 24.2541L324.626 25.2957L328.126 26.365L331.646 27.4625L335.187 28.5883L338.748 29.7429L342.332 30.9265L345.937 32.1398L349.566 33.3831L353.219 34.6571L356.895 35.9624L360.596 37.2997L364.323 38.6698L368.075 40.0735L371.852 41.5117L375.656 42.9855L379.486 44.4959L383.342 46.044L387.224 47.631L391.132 49.2582L395.065 50.927L399.023 52.6387L403.006 54.3949L407.012 56.197L411.041 58.0465L415.092 59.9452L419.162 61.8946L423.251 63.8964L427.357 65.9523L431.479 68.0641L435.613 70.2335L439.758 72.4621L443.911 74.7518L448.069 77.1041L452.23 79.5207L456.39 82.0034L460.547 84.5534L464.696 87.1724L468.834 89.8615L472.958 92.622L477.064 95.455L481.148 98.3614L485.207 101.342L489.236 104.398L493.233 107.529L497.192 110.736L501.109 114.02L504.982 117.38L508.806 120.816L512.576 124.329L516.289 127.918L519.941 131.583L523.528 135.323L527.047 139.137L530.492 143.025L533.861 146.985L537.15 151.017L540.355 155.119L543.473 159.29L546.5 163.528L549.434 167.832L552.27 172.2L555.006 176.63L557.64 181.119L560.167 185.667L562.586 190.271L564.895 194.928L567.09 199.636L569.171 204.394L571.134 209.197L572.979 214.044Z" fill="#FFEBCC"/>
</svg>
