<svg width="655" height="611" viewBox="0 0 655 611" fill="none" xmlns="http://www.w3.org/2000/svg">
<path fill-rule="evenodd" clip-rule="evenodd" d="M648.462 378.691L647.636 383.937L646.767 389.161L645.853 394.363L644.894 399.544L643.89 404.704L642.84 409.842L641.743 414.959L640.597 420.053L639.401 425.126L638.153 430.176L636.851 435.202L635.493 440.204L634.077 445.182L632.599 450.133L631.058 455.057L629.452 459.951L627.776 464.816L626.029 469.648L624.208 474.446L622.31 479.207L620.333 483.929L618.273 488.609L616.128 493.245L613.895 497.834L611.573 502.373L609.159 506.858L606.651 511.286L604.047 515.654L601.346 519.957L598.546 524.194L595.647 528.359L592.647 532.449L589.547 536.461L586.346 540.391L583.045 544.235L579.645 547.99L576.146 551.653L572.55 555.22L568.86 558.689L565.078 562.057L561.206 565.321L557.248 568.48L553.207 571.53L549.086 574.471L544.888 577.3L540.617 580.016L536.277 582.617L531.872 585.103L527.406 587.471L522.883 589.723L518.307 591.856L513.682 593.871L509.014 595.767L504.306 597.545L499.562 599.205L494.789 600.749L489.989 602.175L485.168 603.487L480.33 604.685L475.479 605.771L470.621 606.747L465.76 607.614L460.9 608.376L456.045 609.034L451.2 609.592L446.368 610.052L441.555 610.417L436.763 610.691L431.997 610.877L427.26 610.979L422.555 611L417.885 610.945L413.255 610.817L408.666 610.621L404.121 610.36L399.623 610.04L395.173 609.663L390.775 609.236L386.429 608.761L382.137 608.244L377.901 607.688L373.721 607.098L369.598 606.478L365.533 605.832L361.526 605.163L357.577 604.477L353.687 603.775L349.854 603.063L346.079 602.343L342.36 601.618L338.697 600.892L335.089 600.167L331.535 599.447L328.033 598.733L324.582 598.029L321.18 597.336L317.826 596.656L314.518 595.992L311.254 595.344L308.033 594.715L304.851 594.105L301.708 593.517L298.6 592.951L295.527 592.408L292.486 591.889L289.474 591.395L286.49 590.927L283.531 590.484L280.596 590.069L277.682 589.681L274.786 589.32L271.907 588.989L269.042 588.686L266.19 588.413L263.347 588.169L260.512 587.957L257.682 587.776L254.856 587.628L252.029 587.513L249.201 587.431L246.369 587.383L243.531 587.369L240.683 587.388L237.823 587.44L234.95 587.525L232.061 587.641L229.153 587.787L226.225 587.963L223.274 588.166L220.298 588.395L217.296 588.648L214.265 588.923L211.205 589.217L208.112 589.528L204.986 589.853L201.826 590.189L198.631 590.534L195.399 590.884L192.131 591.236L188.824 591.586L185.48 591.931L182.097 592.267L178.676 592.591L175.217 592.898L171.721 593.185L168.188 593.449L164.618 593.685L161.013 593.889L157.374 594.057L153.703 594.187L150 594.273L146.268 594.312L142.509 594.301L138.724 594.236L134.916 594.114L131.088 593.93L127.241 593.683L123.379 593.367L119.506 592.98L115.624 592.518L111.738 591.978L107.85 591.356L103.967 590.649L100.091 589.854L96.2269 588.967L92.3801 587.987L88.5549 586.911L84.7562 585.736L80.9889 584.461L77.2579 583.083L73.5683 581.603L69.925 580.017L66.333 578.326L62.7972 576.53L59.3223 574.627L55.9132 572.618L52.5745 570.505L49.3106 568.287L46.1259 565.965L43.0246 563.542L40.0105 561.019L37.0875 558.397L34.2592 555.679L31.5288 552.868L28.8996 549.967L26.3745 546.977L23.956 543.903L21.6467 540.747L19.4488 537.513L17.3642 534.205L15.3948 530.826L13.5421 527.381L11.8075 523.872L10.1922 520.304L8.69727 516.681L7.32339 513.007L6.0709 509.286L4.9397 505.522L3.92932 501.721L3.03888 497.885L2.26711 494.021L1.61234 490.131L1.0725 486.221L0.645172 482.296L0.327565 478.359L0.116537 474.415L0.00861185 470.468L0 466.523L0.0866137 462.582L0.264089 458.649L0.527811 454.729L0.87293 450.824L1.29439 446.938L1.78697 443.073L2.34529 439.232L2.96382 435.417L3.63696 431.63L4.35905 427.873L5.12437 424.147L5.92718 420.454L6.76179 416.794L7.62253 413.168L8.50382 409.576L9.40017 406.018L10.3062 402.494L11.2168 399.003L12.1268 395.544L13.0315 392.117L13.9263 388.72L14.8067 385.351L15.6688 382.009L16.5088 378.691L17.3231 375.395L18.1083 372.12L18.8613 368.862L19.579 365.62L20.2588 362.389L20.898 359.167L21.4944 355.952L22.0459 352.74L22.5507 349.527L23.0074 346.311L23.415 343.088L23.7724 339.855L24.0794 336.608L24.3357 333.344L24.5416 330.06L24.6975 326.752L24.8044 323.416L24.8635 320.051L24.8764 316.652L24.8449 313.217L24.7713 309.743L24.6582 306.227L24.5084 302.667L24.325 299.06L24.1114 295.405L23.8713 291.699L23.6085 287.94L23.3271 284.128L23.0314 280.261L22.7259 276.339L22.4152 272.359L22.1038 268.322L21.7968 264.228L21.4987 260.077L21.2147 255.868L20.9494 251.603L20.7079 247.282L20.495 242.906L20.3153 238.476L20.1736 233.993L20.0744 229.46L20.0225 224.877L20.0225 220.246L20.0792 215.571L20.1973 210.854L20.3815 206.097L20.6365 201.305L20.9669 196.479L21.3772 191.625L21.8718 186.746L22.455 181.847L23.131 176.931L23.9036 172.004L24.7767 167.071L25.7538 162.136L26.8383 157.205L28.0332 152.283L29.3415 147.375L30.7656 142.488L32.3078 137.628L33.9702 132.799L35.7545 128.007L37.6619 123.259L39.6935 118.56L41.8501 113.916L44.132 109.333L46.5392 104.816L49.0715 100.371L51.7283 96.0034L54.5087 91.7178L57.4113 87.5197L60.4345 83.4137L63.5766 79.4045L66.8353 75.4964L70.2081 71.6935L73.6923 67.9995L77.285 64.418L80.9827 60.952L84.7822 57.6044L88.6795 54.3772L92.6706 51.2723L96.7514 48.2909L100.917 45.4337L105.164 42.701L109.487 40.0925L113.881 37.6075L118.341 35.245L122.864 33.0032L127.444 30.8802L132.076 28.8736L136.757 26.9806L141.481 25.198L146.245 23.5224L151.044 21.9499L155.875 20.4767L160.734 19.0983L165.618 17.8104L170.522 16.6082L175.446 15.4871L180.385 14.4421L185.338 13.4684L190.302 12.5609L195.276 11.7148L200.258 10.9252L205.247 10.1873L210.242 9.49652L215.242 8.84832L220.248 8.23845L225.259 7.66291L230.275 7.11794L235.296 6.60014L240.324 6.10643L245.358 5.63411L250.4 5.1809L255.451 4.74497L260.512 4.32493L265.584 3.9199L270.668 3.52947L275.767 3.15352L280.88 2.79225L286.009 2.44612L291.156 2.11587L296.322 1.80253L301.507 1.50736L306.714 1.2319L311.942 0.977951L317.193 0.747536L322.467 0.542911L327.766 0.366552L333.088 0.221132L338.436 0.109517L343.808 0.0347418L349.205 0L354.627 0.00862359L360.073 0.0640667L365.542 0.169888L371.034 0.32973L376.547 0.547306L382.081 0.826372L387.634 1.17072L393.203 1.58414L398.789 2.07044L404.387 2.63337L409.997 3.27664L415.615 4.00392L421.239 4.81878L426.866 5.7247L432.494 6.72503L438.118 7.82302L443.736 9.02175L449.344 10.3242L454.939 11.733L460.516 13.2509L466.073 14.8801L471.604 16.623L477.107 18.4813L482.577 20.4568L488.01 22.5507L493.402 24.7641L498.749 27.0977L504.047 29.5518L509.293 32.1267L514.482 34.8221L519.611 37.6379L524.677 40.5732L529.675 43.6272L534.602 46.7988L539.456 50.0868L544.232 53.4894L548.928 57.0051L553.541 60.6319L558.068 64.3678L562.506 68.2104L566.853 72.1574L571.107 76.2062L575.265 80.3542L579.325 84.5986L583.285 88.9364L587.144 93.3648L590.9 97.8807L594.551 102.481L598.097 107.162L601.536 111.922L604.866 116.756L608.088 121.661L611.2 126.634L614.202 131.672L617.093 136.771L619.873 141.929L622.542 147.141L625.099 152.404L627.545 157.716L629.879 163.073L632.102 168.471L634.214 173.908L636.215 179.381L638.107 184.885L639.888 190.42L641.561 195.98L643.127 201.563L644.586 207.167L645.94 212.788L647.191 218.423L648.34 224.069L649.39 229.724L650.341 235.385L651.196 241.049L651.958 246.715L652.628 252.378L653.21 258.038L653.705 263.693L654.115 269.339L654.445 274.975L654.695 280.6L654.87 286.212L654.97 291.809L655 297.391L654.961 302.955L654.857 308.501L654.688 314.028L654.459 319.535L654.171 325.022L653.827 330.488L653.428 335.932L652.976 341.354L652.473 346.754L651.921 352.133L651.321 357.488L650.674 362.822L649.982 368.134L649.244 373.423L648.462 378.691Z" fill="#FFF0E3"/>
</svg>
